<?xml version="1.0" standalone="no"?>
<!DOCTYPE svg PUBLIC "-//W3C//DTD SVG 1.1//EN" "http://www.w3.org/Graphics/SVG/1.1/DTD/svg11.dtd" >
<svg xmlns="http://www.w3.org/2000/svg" xmlns:xlink="http://www.w3.org/1999/xlink" version="1.1">
<metadata></metadata>
<defs>
<font id="roddenberrybold" horiz-adv-x="900" >
<font-face units-per-em="2048" ascent="1638" descent="-410" />
<missing-glyph horiz-adv-x="712" />
<glyph unicode="&#xd;" horiz-adv-x="610" />
<glyph horiz-adv-x="0" />
<glyph horiz-adv-x="0" />
<glyph unicode=" "  horiz-adv-x="712" />
<glyph unicode="&#x09;" horiz-adv-x="712" />
<glyph unicode="&#xa0;" horiz-adv-x="712" />
<glyph unicode="!" horiz-adv-x="400" d="M-25 -20v290h300v-290h-300zM-25 380v1240h300v-1240h-300z" />
<glyph unicode="&#x22;" horiz-adv-x="750" d="M-25 1189v431h300v-281zM325 1189v431h300v-281z" />
<glyph unicode="#" horiz-adv-x="1250" d="M-25 114v347l225 112v104l-225 -113v347l225 112v347h300v-197l100 50v347h300v-197l225 112v-346l-225 -112v-104l225 112v-346l-225 -112v-347h-300v197l-37 -19l-63 -31v-347h-300v197zM500 723l100 50v104l-37 -19l-63 -31v-104z" />
<glyph unicode="$" d="M-25 362l300 150v-142h200v343l-500 -249v786q0 156 57 213t193 58v99h300v-100q136 0 193 -55.5t57 -225.5l-300 -150v141h-200v-319l500 250v-811q0 -156 -57 -213t-193 -58v-99h-300v100q-136 0 -193 55.5t-57 226.5z" />
<glyph unicode="%" horiz-adv-x="1350" d="M-25 1099v151q0 156 57 213t218 58l100 1q161 -1 218 -56.5t57 -153.5l106 308h302l-294 -854q12 4 111 5l100 1q161 -1 218 -56.5t57 -215.5v-149q0 -157 -56.5 -213.5t-218.5 -56.5l-100 -1q-162 0 -218.5 56.5t-56.5 151.5l-106 -308h-302l294 855q-11 -4 -111 -4 l-100 -1q-162 0 -218.5 56.5t-56.5 212.5zM275 1119l50 1v111l-50 -1v-111zM875 369l50 1v111l-50 -1v-111z" />
<glyph unicode="&#x26;" horiz-adv-x="950" d="M-25 250v350q1 135 53 169q-52 18 -53 131v450q0 157 56.5 213.5t218.5 56.5h250q162 0 218.5 -56.5t56.5 -213.5v-56l-300 -107v143h-200v-393l75 37v-346l-75 -38v-320h200v244l-100 -50v347l450 224v-346l-50 -25v-414q0 -157 -56.5 -213.5t-218.5 -56.5h-250 q-165 0 -220 82.5t-55 187.5z" />
<glyph unicode="'" horiz-adv-x="400" d="M-25 1189v431h300v-281z" />
<glyph unicode="(" horiz-adv-x="650" d="M-25 50v1500q0 106 81.5 188t193.5 82h275v-290h-250v-1461h250v-290h-275q-112 1 -193.5 82.5t-81.5 188.5z" />
<glyph unicode=")" horiz-adv-x="650" d="M-25 68h250v1462h-250v290h275q112 -1 193.5 -82.5t81.5 -189.5v-1499q0 -107 -81.5 -188.5t-193.5 -81.5h-275v289z" />
<glyph unicode="*" horiz-adv-x="850" d="M-38 730l159 300h-146v290h146l-159 300h304l84 -158l84 158h304l-159 -300h146v-290h-146l159 -300h-304l-84 158l-84 -158h-304z" />
<glyph unicode="+" horiz-adv-x="850" d="M-25 464v347l225 112v347h300v-197l225 112v-346l-225 -112v-347h-300v197z" />
<glyph unicode="," horiz-adv-x="400" d="M-25 -161v431h300v-281z" />
<glyph unicode="-" horiz-adv-x="750" d="M-25 464v347l650 325v-346z" />
<glyph unicode="." horiz-adv-x="400" d="M-25 -20v290h300v-290h-300z" />
<glyph unicode="/" horiz-adv-x="950" d="M-33 -20l564 1640h302l-564 -1640h-302z" />
<glyph unicode="0" d="M-25 249v1101q0 156 57 213t218 58l250 -1q161 0 218 -55.5t57 -215.5v-1099q0 -157 -56.5 -213.5t-218.5 -56.5h-250q-162 0 -218.5 56.5t-56.5 212.5zM275 269h200v1061h-200v-1061z" />
<glyph unicode="1" horiz-adv-x="666" d="M49 1097v307l493 258v-1682h-290l2 1220z" />
<glyph unicode="2" d="M-25 -20v695q0 112 112 167l388 194v294h-200v-166l-300 -150v336q0 157 56.5 213.5t218.5 56.5h250q162 0 218.5 -56.5t56.5 -213.5v-350q0 -161 -112 -216l-388 -195v-319h500v-290h-800z" />
<glyph unicode="3" d="M-25 250v161l300 150v-291h200v420l-150 -75v347l150 74v294h-200v-166l-300 -150v336q0 157 56.5 213.5t218.5 56.5h250q162 0 218.5 -56.5t56.5 -213.5v-350q0 -133 -50 -172q49 -15 50 -128v-450q0 -157 -56.5 -213.5t-218.5 -56.5h-250q-165 0 -220 82.5t-55 187.5z " />
<glyph unicode="4" d="M-25 439v1181h300v-684l200 100v334h300v-1390h-300v709z" />
<glyph unicode="5" d="M-25 249v87l300 150v-217h200v420l-500 -250v1181h800v-290h-500v-394l500 250v-936q0 -157 -56.5 -213.5t-218.5 -56.5h-250q-162 0 -218.5 56.5t-56.5 212.5z" />
<glyph unicode="6" d="M-25 249v1101q0 156 57 213t218 58l250 -1q161 0 218 -55.5t57 -215.5v-110l-300 -150v241h-200v-494l500 250v-836q0 -157 -56.5 -213.5t-218.5 -56.5h-250q-162 0 -218.5 56.5t-56.5 212.5zM275 269h200v320l-200 -100v-220z" />
<glyph unicode="7" d="M-25 1330v290h800v-620q0 -161 -112 -216l-238 -120v-684h-300v770q0 112 112 167l238 119v294h-500z" />
<glyph unicode="8" d="M-25 250v350q1 135 53 169q-52 18 -53 131v450q0 157 56.5 213.5t218.5 56.5h250q162 0 218.5 -56.5t56.5 -213.5v-350q0 -133 -50 -172q49 -15 50 -128v-450q0 -157 -56.5 -213.5t-218.5 -56.5h-250q-165 0 -220 82.5t-55 187.5zM275 270h200v420l-200 -100v-320z M275 937l200 99v294h-200v-393z" />
<glyph unicode="9" d="M-25 252v110l300 150v-241h200v494l-500 -250v836q0 157 56.5 213.5t218.5 56.5h250q162 0 218.5 -56.5t56.5 -212.5v-1101q0 -156 -57 -213t-218 -58l-250 1q-161 0 -218 55.5t-57 215.5zM275 1012l200 100v220h-200v-320z" />
<glyph unicode=":" horiz-adv-x="400" d="M-25 -20v290h300v-290h-300zM-25 480v290h300v-290h-300z" />
<glyph unicode=";" horiz-adv-x="400" d="M-25 -161v431h300v-281zM-25 480v290h300v-290h-300z" />
<glyph unicode="&#x3c;" horiz-adv-x="750" d="M-25 539v421l650 379v-349l-396 -231l396 -198v-347z" />
<glyph unicode="=" horiz-adv-x="750" d="M-25 214v347l650 325v-346zM-25 664v347l650 325v-346z" />
<glyph unicode="&#x3e;" horiz-adv-x="750" d="M-25 211v349l396 231l-396 198v347l650 -325v-421z" />
<glyph unicode="?" d="M-25 1014v336q0 157 56.5 213.5t218.5 56.5h250q162 0 218.5 -56.5t56.5 -213.5v-350q0 -161 -112 -216l-138 -70v-334h-300v420q0 112 112 167l138 69v294h-200v-166zM225 -20v290h300v-290h-300z" />
<glyph unicode="@" horiz-adv-x="1150" d="M-25 250v1100q0 107 81.5 188.5t193.5 81.5h500q112 0 193.5 -81.5t81.5 -188.5v-970h-300v17q-8 -16 -125 -17q-162 0 -218.5 56.5t-56.5 213.5v300q0 157 56.5 213.5t218.5 56.5q117 0 125 -16v126h-450v-1060h750v-290h-775q-112 0 -193.5 81.5t-81.5 188.5zM625 670 h100v260h-100v-260z" />
<glyph unicode="A" d="M-25 -20v1370q0 157 56.5 213.5t218.5 56.5h250q162 0 218.5 -56.5t56.5 -213.5v-1370h-300v709l-200 -100v-609h-300zM275 936l200 100v294h-200v-394z" />
<glyph unicode="B" d="M-25 -20v1640h525q162 0 218.5 -56.5t56.5 -213.5v-350q0 -133 -50 -172q49 -15 50 -128v-450q0 -157 -56.5 -213.5t-218.5 -56.5h-525zM275 270h200v420l-200 -100v-320zM275 937l200 99v294h-200v-393z" />
<glyph unicode="C" d="M-25 249v1101q0 156 57 213t218 58l250 -1q161 0 218 -55.5t57 -215.5v-110l-300 -150v241h-200v-1061h200v167l300 150v-336q0 -157 -56.5 -213.5t-218.5 -56.5h-250q-162 0 -218.5 56.5t-56.5 212.5z" />
<glyph unicode="D" d="M-25 -21v1641h525q161 0 218 -55.5t57 -215.5v-1099q0 -157 -56.5 -213.5t-218.5 -56.5zM275 269l200 1v1059h-200v-1060z" />
<glyph unicode="E" horiz-adv-x="800" d="M-25 -20v1640h700v-290h-400v-393l400 199v-346l-400 -200v-320h400l-1 -290h-699z" />
<glyph unicode="F" horiz-adv-x="800" d="M-25 -20v1640h700v-290h-400v-393l400 199v-346l-400 -200v-610h-300z" />
<glyph unicode="G" d="M-25 249v1101q0 156 57 213t218 58l250 -1q161 0 218 -55.5t57 -215.5v-110l-300 -150v241h-200v-1061h200v320l-150 -75v347l450 225v-836q0 -157 -56.5 -213.5t-218.5 -56.5h-250q-162 0 -218.5 56.5t-56.5 212.5z" />
<glyph unicode="H" d="M-25 -20v1640h300v-684l200 100v584h300v-1640h-300v709l-200 -100v-609h-300z" />
<glyph unicode="I" horiz-adv-x="400" d="M-25 -20v1640h300v-1640h-300z" />
<glyph unicode="J" d="M-25 252v110l300 150v-241h200v1349h300v-1369q0 -156 -57 -213t-218 -58l-250 1q-161 0 -218 55.5t-57 215.5z" />
<glyph unicode="K" d="M-25 -20v1640h300v-497l207 497h303l-305 -732l302 -908h-301l-169 506l-37 -89v-417h-300z" />
<glyph unicode="L" horiz-adv-x="750" d="M-25 -20v1641h300v-1351h349v-290h-649z" />
<glyph unicode="M" horiz-adv-x="1300" d="M-25 -20v1370q0 157 56.5 213.5t218.5 56.5h200q119 0 125 -18q6 18 125 18h200q162 0 218.5 -56.5t56.5 -212.5v-1371h-300v1351h-150v-1351h-300v1351h-150v-1351h-300z" />
<glyph unicode="N" d="M-25 -20v1640h300v-18q6 18 125 18h100q165 0 220 -82.5t55 -187.5v-1370h-300v1350h-200v-1350h-300z" />
<glyph unicode="O" d="M-25 249v1101q0 156 57 213t218 58l250 -1q161 0 218 -55.5t57 -215.5v-1099q0 -157 -56.5 -213.5t-218.5 -56.5h-250q-162 0 -218.5 56.5t-56.5 212.5zM275 269h200v1061h-200v-1061z" />
<glyph unicode="P" d="M-25 -20v1640h525q162 0 218.5 -56.5t56.5 -213.5v-350q0 -161 -112 -216l-388 -194v-610h-300zM275 937l200 99v294h-200v-393z" />
<glyph unicode="Q" d="M-25 249v1101q0 156 57 213t218 58l250 -1q161 0 218 -55.5t57 -215.5v-1099q0 -57 -6 -93l112 -161l-237 -178l-114 162h-280q-162 0 -218.5 56.5t-56.5 212.5zM275 269h53l-53 76v-76zM275 359l200 150v821h-200v-971z" />
<glyph unicode="R" d="M-25 -20v1640h525q162 0 218.5 -56.5t56.5 -213.5v-350q0 -161 -112 -216l-174 -87l295 -717h-302l-207 502v-502h-300zM275 937l200 99v294h-200v-393z" />
<glyph unicode="S" d="M-25 252v110l300 150v-241h200v442l-500 -249v886q0 156 57 213t218 58l250 -1q161 0 218 -55.5t57 -215.5v-110l-300 -150v241h-200v-419l500 250v-910q0 -156 -57 -213t-218 -58l-250 1q-161 0 -218 55.5t-57 215.5z" />
<glyph unicode="T" horiz-adv-x="950" d="M-25 1329v291h860v-291h-285v-1349h-300v1350z" />
<glyph unicode="U" d="M-25 249v1371h300v-1351h200v1351h300v-1370q0 -157 -56.5 -213.5t-218.5 -56.5h-250q-162 0 -218.5 56.5t-56.5 212.5z" />
<glyph unicode="V" d="M-25 -35v1655h300v-1187l200 79v1108h300v-1281z" />
<glyph unicode="W" horiz-adv-x="1300" d="M-25 249v1371h300v-1351h150v1351h300v-1351h150v1351h300v-1370q0 -157 -56.5 -213.5t-218.5 -56.5h-200q-119 0 -125 18q-6 -18 -125 -18h-200q-162 0 -218.5 56.5t-56.5 212.5z" />
<glyph unicode="X" horiz-adv-x="950" d="M-33 -20l282 820l-282 820h302l131 -381l131 381h302l-282 -820l282 -820h-302l-131 381l-131 -381h-302z" />
<glyph unicode="Y" d="M-25 252v110l300 150v-241h200v527l-500 -233v1055h300v-587l200 79v508h300v-1369q0 -156 -57 -213t-218 -58l-250 1q-161 0 -218 55.5t-57 215.5z" />
<glyph unicode="Z" d="M-25 -20v273l465 1077h-465v290h800v-273l-464 -1078l464 1v-290h-800z" />
<glyph unicode="[" horiz-adv-x="650" d="M-25 -221v2042h550l1 -290l-251 -1v-1461h250v-290h-550z" />
<glyph unicode="\" horiz-adv-x="950" d="M-33 1620h302l564 -1640h-302z" />
<glyph unicode="]" horiz-adv-x="650" d="M-25 1531l1 290h550v-2042h-550v290h250v1461z" />
<glyph unicode="^" horiz-adv-x="800" d="M-46 1680l232 290h278l232 -290h-308l-63 63l-63 -63h-308z" />
<glyph unicode="_" horiz-adv-x="1350" d="M-25 20l1250 -1v-289h-1250v290z" />
<glyph unicode="`" horiz-adv-x="400" d="M-25 1789v281h300v-431z" />
<glyph unicode="a" horiz-adv-x="850" d="M-25 250v200q0 111 114 168l336 168v145h-150v-167l-300 -150v336q0 157 56.5 213.5t218.5 56.5h200q162 0 218.5 -56.5t56.5 -212.5v-971h-300v17q-8 -16 -123 -16h-52q-161 0 -218 56q-57 55 -57 213zM275 271h150v168l-150 -75v-93z" />
<glyph unicode="b" horiz-adv-x="850" d="M-25 -20v1506l300 150v-432q8 16 125 16h50q162 0 218.5 -56.5t56.5 -213.5v-700q0 -157 -56.5 -213.5t-218.5 -56.5l-50 -1q-117 2 -125 18v-17h-300zM275 270h150v660h-150v-660z" />
<glyph unicode="c" horiz-adv-x="850" d="M-25 249v700q0 156 57 213t218 58l200 -1q161 0 218 -55.5t57 -215.5v-110l-300 -150v241h-150v-660h150v167l300 150v-336q0 -157 -56.5 -213.5t-218.5 -56.5h-200q-162 0 -218.5 56.5t-56.5 212.5z" />
<glyph unicode="d" horiz-adv-x="850" d="M-25 250v700q0 157 56.5 213.5t218.5 56.5h50q117 0 125 -16v282l300 150v-1656h-300v17q-8 -16 -125 -18l-50 1q-162 0 -218.5 56.5t-56.5 213.5zM275 270h150v660h-150v-660z" />
<glyph unicode="e" horiz-adv-x="850" d="M-25 249v700q0 156 57 213t218 58l200 -1q161 0 219 -56q56 -55 56 -213v-310l-450 -226v-145h150v167l300 150v-336q0 -157 -56.5 -213.5t-218.5 -56.5h-200q-162 0 -218.5 56.5t-56.5 212.5zM275 761l150 75v93h-150v-168z" />
<glyph unicode="f" horiz-adv-x="750" d="M-25 464v347l150 75v463q0 156 57 213t218 58l225 -2v-290l-200 1v-293l200 100v-346l-200 -100v-710h-300v559z" />
<glyph unicode="g" horiz-adv-x="850" d="M-25 -138l238 119q-132 6 -181 56q-57 56 -57 213v700q0 157 56.5 213.5t218.5 56.5h50q117 0 125 -16v16h300v-1369q0 -156 -57 -213t-218 -58l-200 2q-161 0 -218 55.5t-57 224.5zM275 -20v-108l150 -1v126q-8 -16 -125 -18zM275 270h150v660h-150v-660z" />
<glyph unicode="h" horiz-adv-x="850" d="M-25 -20v1506l300 150v-432q8 16 125 16h50q162 0 218.5 -56.5t56.5 -213.5v-970h-300v950h-150v-950h-300z" />
<glyph unicode="i" horiz-adv-x="400" d="M-25 -20v1106l300 150v-1256h-300zM-25 1189v297l300 150v-297z" />
<glyph unicode="j" horiz-adv-x="600" d="M-25 -128l200 -1v1215l300 150v-1385q0 -156 -57 -213t-218 -58l-225 2v290zM175 1189v297l300 150v-297z" />
<glyph unicode="k" horiz-adv-x="850" d="M-25 -20v1506l300 150v-750l158 334h303l-301 -636l302 -604h-304l-146 292l-12 -25v-267h-300z" />
<glyph unicode="l" horiz-adv-x="400" d="M-25 -20v1506l300 150v-1656h-300z" />
<glyph unicode="m" horiz-adv-x="1300" d="M-25 -20v1240h300v-16q8 16 125 16h50q162 0 243 -81q40 81 157 81h50q112 0 193.5 -81.5t81.5 -188.5v-970h-300v950h-150v-950h-300v950h-150v-950h-300z" />
<glyph unicode="n" horiz-adv-x="850" d="M-25 -20v1240h300v-16q8 16 125 16h50q162 0 218.5 -56.5t56.5 -213.5v-970h-300v950h-150v-950h-300z" />
<glyph unicode="o" horiz-adv-x="850" d="M-25 249v700q0 156 57 213t218 58h200q161 -1 218 -56.5t57 -215.5v-698q0 -157 -56.5 -213.5t-218.5 -56.5h-200q-162 0 -218.5 56.5t-56.5 212.5zM275 269h150v660h-150v-660z" />
<glyph unicode="p" horiz-adv-x="850" d="M-25 -420v1640h300v-16q8 16 125 16h50q162 0 218.5 -56.5t56.5 -213.5v-700q0 -157 -56.5 -213.5t-218.5 -56.5l-50 -1q-117 2 -125 18v-417h-300zM275 270h150v660h-150v-660z" />
<glyph unicode="q" horiz-adv-x="850" d="M-25 250v700q0 157 56.5 213.5t218.5 56.5h50q117 0 125 -16v16h300v-1640h-300v417q-8 -16 -125 -18l-50 1q-162 0 -218.5 56.5t-56.5 213.5zM275 270h150v660h-150v-660z" />
<glyph unicode="r" horiz-adv-x="850" d="M-25 -20v1240h300v-16q8 16 125 16h50q162 0 218.5 -56.5t56.5 -213.5v-61l-300 -150v191h-150v-950h-300z" />
<glyph unicode="s" horiz-adv-x="850" d="M-25 242l300 160v-132h150v240l-450 -248v689q0 156 57 213t218 58l200 -2q161 0 218 -55.5t57 -206.5l-300 -150v122l-150 1v-220l450 225v-686q0 -156 -57 -213t-218 -58l-200 3q-161 0 -218 55.5t-57 204.5z" />
<glyph unicode="t" horiz-adv-x="750" d="M-25 564v347l150 75v300l300 150v-300l200 100v-346l-200 -100v-519l200 1v-290l-225 -2q-161 1 -218 58t-57 213v388z" />
<glyph unicode="u" horiz-adv-x="850" d="M-25 250v970h300v-950h150v950h300v-1240h-300v16q-8 -16 -125 -16h-50q-162 0 -218.5 56.5t-56.5 213.5z" />
<glyph unicode="v" d="M-25 -35v1255h300v-787l200 79v708h300v-881z" />
<glyph unicode="w" horiz-adv-x="1300" d="M-25 249v971h300v-951h150v951h300v-951h150v951h300v-970q0 -157 -56.5 -213.5t-218.5 -56.5h-200q-119 0 -125 18q-6 -18 -125 -18h-200q-162 0 -218.5 56.5t-56.5 212.5z" />
<glyph unicode="x" horiz-adv-x="850" d="M-34 -20l239 636l-239 604h303l81 -217l81 217h303l-239 -604l239 -636h-277l-107 270l-107 -270h-277z" />
<glyph unicode="y" horiz-adv-x="850" d="M-25 66v1154h300v-689l150 49v639h300v-1369q0 -156 -57 -213t-218 -58l-200 2q-161 0 -218 55.5t-57 224.5l300 150v-140l150 -1v396z" />
<glyph unicode="z" horiz-adv-x="850" d="M-25 -20v274l410 677h-410v290h750v-275l-457 -677l457 1v-290h-750z" />
<glyph unicode="{" horiz-adv-x="725" d="M-25 625v346l75 38v541q0 107 81.5 188.5t193.5 81.5h275v-289h-250v-532q-1 -135 -53 -169q52 -18 53 -131v-630h250v-290h-275q-112 1 -193.5 82.5t-81.5 189.5v611z" />
<glyph unicode="|" horiz-adv-x="400" d="M-25 -370v2190l300 1v-2190z" />
<glyph unicode="}" horiz-adv-x="725" d="M-25 68h250v532q1 135 53 169q-52 18 -53 131v630h-250v290h275q112 -1 193.5 -82.5t81.5 -189.5v-611l75 37v-346l-75 -38v-541q0 -107 -81.5 -188.5t-193.5 -81.5h-275v289z" />
<glyph unicode="~" d="M-34 1630l110 276q57 114 224 114q117 0 150 -66l33 66h301l-110 -277q-58 -113 -174 -113q-112 0 -193 81l-40 -81h-301z" />
<glyph unicode="&#xa1;" horiz-adv-x="400" d="M-25 -20v1240h300v-1240h-300zM-25 1330v290h300v-290h-300z" />
<glyph unicode="&#xa2;" d="M-25 349v500q0 156 57 213t193 58v100h300v-101q136 0 193 -55.5t57 -215.5v-59l-300 -150v190h-200v-460h200v117l300 150v-286q0 -157 -56.5 -213.5t-193.5 -56.5v-100h-300v100q-137 0 -193.5 56.5t-56.5 212.5z" />
<glyph unicode="&#xa3;" horiz-adv-x="975" d="M-25 -20v291h175v181l-175 -88v347l175 88v551q0 156 57 213t218 58l150 -1q161 0 218 -55.5t57 -215.5v-110l-300 -150v241h-100v-381l175 87v-346l-175 -88v-333l400 1v-290h-875z" />
<glyph unicode="&#xa4;" horiz-adv-x="850" d="M-34 180l105 279q-17 6 -39 27q-57 57 -57 213v199q0 156 58 214q23 23 43 29l-110 279h303l81 -216l81 216h303l-110 -278q20 -6 45 -30q56 -55 56 -215v-197q0 -157 -57 -214q-22 -21 -39 -27l105 -279h-277l-99 250h-16l-99 -250h-277zM275 721h150v159h-150v-159z " />
<glyph unicode="&#xa5;" horiz-adv-x="950" d="M-33 1620h302l131 -381l131 381h302l-179 -519l71 35v-346l-175 -88v-103l175 87v-346l-175 -88v-272h-300v122l-175 -88v347l175 88v103l-175 -88v347l145 73z" />
<glyph unicode="&#xa6;" horiz-adv-x="400" d="M-25 -370v881l300 150v-1030zM-25 764v1056l300 1v-907z" />
<glyph unicode="&#xa7;" d="M-25 1v110l300 150v-241h200v260h-225q-162 1 -218 57q-48 48 -53 129l-4 -2v1136q0 156 57 213t218 58l250 -1q161 0 218 -55.5t57 -215.5v-110l-300 -150v241h-200v-259l225 -1q161 -1 219 -57q41 -41 48 -106l8 4v-1161q0 -156 -57 -213t-218 -57h-250 q-161 0 -218 55.5t-57 215.5zM275 570l200 -1v461h-200v-460z" />
<glyph unicode="&#xa8;" horiz-adv-x="800" d="M-25 1680v290h300v-290h-300zM375 1680v290h300v-290h-300z" />
<glyph unicode="&#xa9;" horiz-adv-x="1100" d="M-25 450v899q0 156 57 213t218 58h450q161 0 218 -55.5t57 -215.5v-897q0 -157 -56.5 -213.5t-218.5 -56.5l-450 -1q-162 0 -218.5 56.5t-56.5 212.5zM275 470l400 1v154q0 -82 -31.5 -113.5t-118.5 -31.5l-100 -1q-87 0 -118.5 31.5t-31.5 112.5v-153zM275 1174 q0 81 32 113t118 32l100 1q87 0 118.5 -31t31.5 -115v156h-400v-156zM450 643l50 1v79l175 88v303l-175 -88v129l-50 -1v-511z" />
<glyph unicode="&#xaa;" horiz-adv-x="850" d="M-25 650v200q0 111 114 168l336 168v145h-150v-167l-300 -150v336q0 157 56.5 213.5t218.5 56.5h200q162 0 218.5 -56.5t56.5 -212.5v-971h-300v17q-8 -16 -123 -16h-52q-161 0 -218 56q-57 55 -57 213zM275 671h150v168l-150 -75v-93z" />
<glyph unicode="&#xab;" horiz-adv-x="1400" d="M-25 539v421l650 379v-349l-396 -231l396 -198v399l650 379v-349l-396 -231l396 -198v-347l-650 325v-325z" />
<glyph unicode="&#xac;" horiz-adv-x="1216" d="M79 780v160h1058v-616l-14 -14h-155v470h-889z" />
<glyph unicode="&#xad;" horiz-adv-x="750" d="M-25 464v347l650 325v-346z" />
<glyph unicode="&#xae;" horiz-adv-x="1100" d="M-25 450v899q0 156 57 213t218 58h450q161 0 218 -55.5t57 -215.5v-897q0 -157 -56.5 -213.5t-218.5 -56.5l-450 -1q-162 0 -218.5 56.5t-56.5 212.5zM275 470l400 1v9h-169l-56 170v-170h-175v-10zM275 1320h250q87 0 118.5 -31.5t31.5 -113.5v155h-400v-10zM450 992 l50 31v132h-50v-163zM535 844l140 -342v498q0 -86 -62 -116z" />
<glyph unicode="&#xaf;" horiz-adv-x="1200" d="M-25 1680v290l1250 -1v-289h-1250z" />
<glyph unicode="&#xb0;" horiz-adv-x="850" d="M-25 1150v199q0 156 57 213t218 58h200q161 -1 218 -56.5t57 -215.5v-197q0 -157 -56.5 -213.5t-218.5 -56.5h-200q-162 0 -218.5 56.5t-56.5 212.5zM275 1170h150v159h-150v-159z" />
<glyph unicode="&#xb1;" horiz-adv-x="850" d="M-25 14v347l750 374v-346zM-25 714v347l225 112v347h300v-197l225 112v-346l-225 -112v-347h-300v197z" />
<glyph unicode="&#xb2;" horiz-adv-x="850" d="M-25 380v495q0 112 111 167l339 193v95h-150v-66l-300 -150v236q0 157 56.5 213.5t218.5 56.5h200q162 0 218.5 -56.5t56.5 -213.5v-150q0 -161 -111 -216l-339 -194v-120h450v-290h-750z" />
<glyph unicode="&#xb3;" horiz-adv-x="850" d="M-25 650v62l300 150v299l150 74v95h-150v-66l-300 -150v236q0 157 56.5 213.5t218.5 56.5h200q162 0 218.5 -56.5t56.5 -213.5v-151q0 -133 -50 -172q49 -15 50 -128v-249q0 -157 -56.5 -213.5t-218.5 -56.5h-200q-165 0 -220 82.5t-55 187.5zM275 670h150v219l-150 -75 v-144z" />
<glyph unicode="&#xb4;" horiz-adv-x="400" d="M-25 1655v281l300 150v-431h-300z" />
<glyph unicode="&#xb5;" horiz-adv-x="850" d="M-25 -420v1640h300v-950h150v950h300v-970q0 -157 -56.5 -213.5t-218.5 -56.5l-50 -1q-117 2 -125 18v-417h-300z" />
<glyph unicode="&#xb6;" horiz-adv-x="1229" d="M87 1303q0 196 136 317.5t361 121.5h556v-124h-152v-1638h-149v1638h-149v-1638h-151v887q-195 8 -323.5 128t-128.5 308z" />
<glyph unicode="&#xb7;" horiz-adv-x="400" d="M-25 480v290h300v-290h-300z" />
<glyph unicode="&#xb8;" horiz-adv-x="600" d="M-25 -128l200 -1v165l300 150v-335q0 -156 -57 -213t-218 -58l-225 2v290z" />
<glyph unicode="&#xb9;" horiz-adv-x="600" d="M-25 1099v313l500 222v-1254h-300v811z" />
<glyph unicode="&#xba;" horiz-adv-x="850" d="M-25 649v700q0 156 57 213t218 58h200q161 -1 218 -56.5t57 -215.5v-698q0 -157 -56.5 -213.5t-218.5 -56.5h-200q-162 0 -218.5 56.5t-56.5 212.5zM275 669h150v660h-150v-660z" />
<glyph unicode="&#xbb;" horiz-adv-x="1400" d="M-25 211v349l396 231l-396 198v347l650 -325v325l650 -325v-421l-650 -379v349l396 231l-396 198v-399z" />
<glyph unicode="&#xbc;" horiz-adv-x="1550" d="M-25 1099v313l500 222v-759l256 745h302l-137 -400h79v-534l150 75v209h300v-990h-300v434l-450 -225v390l-206 -599h-302l138 400h-130v811z" />
<glyph unicode="&#xbd;" horiz-adv-x="1500" d="M-25 1099v313l500 222v-759l256 745h302l-138 -399q-7 0 -7 -1h212q162 0 218.5 -56.5t56.5 -213.5v-150q0 -161 -111 -216l-339 -194v-120h450v-290h-750v453l-156 -453h-302l138 400h-130v811zM686 610q21 18 50 32l339 193v95h-150v-66l-183 -92z" />
<glyph unicode="&#xbe;" horiz-adv-x="1650" d="M-25 650v62l300 150v299l150 74v95h-150v-66l-300 -150v236q0 157 56.5 213.5t218.5 56.5h200q162 0 218.5 -56.5t56.5 -213.5v-151q0 -19 -1 -36l157 457h302l-137 -400h29v-534l150 75v209h300v-990h-300v434l-450 -225v245l-156 -454h-302l138 399q7 0 7 1h-212 q-165 0 -220 82.5t-55 187.5zM275 670h150v219l-150 -75v-144zM675 1027q2 -1 4 -1q3 0 3 3q0 1 -1 3q-3 -3 -6 -5z" />
<glyph unicode="&#xbf;" d="M-25 250v350q0 161 112 216l138 70v334h300v-420q0 -112 -112 -167l-138 -69v-294h200v166l300 150v-336q0 -157 -56.5 -213.5t-218.5 -56.5h-250q-162 0 -218.5 56.5t-56.5 213.5zM225 1330v290h300v-290h-300z" />
<glyph unicode="&#xc0;" d="M-25 -20v1370q0 157 56.5 213.5t218.5 56.5h250q162 0 218.5 -56.5t56.5 -213.5v-1370h-300v709l-200 -100v-609h-300zM225 1789v281h300v-431zM275 936l200 100v294h-200v-394z" />
<glyph unicode="&#xc1;" d="M-25 -20v1370q0 157 56.5 213.5t218.5 56.5h250q162 0 218.5 -56.5t56.5 -213.5v-1370h-300v709l-200 -100v-609h-300zM225 1655v281l300 150v-431h-300zM275 936l200 100v294h-200v-394z" />
<glyph unicode="&#xc2;" d="M-25 -20v1370q0 157 56.5 213.5t218.5 56.5h250q162 0 218.5 -56.5t56.5 -213.5v-1370h-300v709l-200 -100v-609h-300zM4 1680l232 290h278l232 -290h-308l-63 63l-63 -63h-308zM275 936l200 100v294h-200v-394z" />
<glyph unicode="&#xc3;" d="M-34 1630l110 276q57 114 224 114q117 0 150 -66l33 66h301l-110 -277q-58 -113 -174 -113q-112 0 -193 81l-40 -81h-301zM-25 -20v1370q0 157 56.5 213.5t218.5 56.5h250q162 0 218.5 -56.5t56.5 -213.5v-1370h-300v709l-200 -100v-609h-300zM275 936l200 100v294h-200 v-394z" />
<glyph unicode="&#xc4;" d="M-25 -20v1370q0 157 56.5 213.5t218.5 56.5h250q162 0 218.5 -56.5t56.5 -213.5v-1370h-300v709l-200 -100v-609h-300zM25 1680v290h300v-290h-300zM275 936l200 100v294h-200v-394zM425 1680v290h300v-290h-300z" />
<glyph unicode="&#xc5;" d="M-25 -20v1370q0 157 56.5 213.5t218.5 56.5h250q162 0 218.5 -56.5t56.5 -213.5v-1370h-300v709l-200 -100v-609h-300zM225 1680v290h300v-290h-300zM275 936l200 100v294h-200v-394z" />
<glyph unicode="&#xc6;" horiz-adv-x="1300" d="M-25 -20v1370q0 157 56.5 213.5t218.5 56.5h925v-290h-400v-393l400 199v-346l-400 -200v-320h400l-1 -290h-699v709l-200 -100v-609h-300zM275 936l200 100v294h-200v-394z" />
<glyph unicode="&#xc7;" d="M-25 249v1101q0 156 57 213t218 58l250 -1q161 0 218 -55.5t57 -215.5v-110l-300 -150v241h-200v-1061h200v167l300 150v-336q0 -157 -56.5 -213.5t-193.5 -56.5v-129q0 -156 -57 -213t-218 -58l-225 2v290l200 -1v109q-137 0 -193.5 56.5t-56.5 212.5z" />
<glyph unicode="&#xc8;" horiz-adv-x="800" d="M-25 -20v1640h700v-290h-400v-393l400 199v-346l-400 -200v-320h400l-1 -290h-699zM225 1789v281h300v-431z" />
<glyph unicode="&#xc9;" horiz-adv-x="800" d="M-25 -20v1640h700v-290h-400v-393l400 199v-346l-400 -200v-320h400l-1 -290h-699zM225 1655v281l300 150v-431h-300z" />
<glyph unicode="&#xca;" horiz-adv-x="800" d="M-46 1680l232 290h278l232 -290h-308l-63 63l-63 -63h-308zM-25 -20v1640h700v-290h-400v-393l400 199v-346l-400 -200v-320h400l-1 -290h-699z" />
<glyph unicode="&#xcb;" horiz-adv-x="800" d="M-25 -20v1640h700v-290h-400v-393l400 199v-346l-400 -200v-320h400l-1 -290h-699zM-25 1680v290h300v-290h-300zM375 1680v290h300v-290h-300z" />
<glyph unicode="&#xcc;" horiz-adv-x="400" d="M-25 -20v1640h300v-1640h-300zM-25 1789v281h300v-431z" />
<glyph unicode="&#xcd;" horiz-adv-x="400" d="M-25 -20v1640h300v-1640h-300zM-25 1655v281l300 150v-431h-300z" />
<glyph unicode="&#xce;" horiz-adv-x="400" d="M-246 1680l232 290h278l232 -290h-308l-63 63l-63 -63h-308zM-25 -20v1640h300v-1640h-300z" />
<glyph unicode="&#xcf;" horiz-adv-x="400" d="M-225 1680v290h300v-290h-300zM-25 -20v1640h300v-1640h-300zM175 1680v290h300v-290h-300z" />
<glyph unicode="&#xd0;" horiz-adv-x="1100" d="M-25 464v347l200 100v709h525q161 0 218 -55.5t57 -215.5v-1099q0 -157 -56.5 -213.5t-218.5 -56.5l-525 -1v585zM475 269l200 1v1059h-200v-268l150 75v-346l-150 -75v-446z" />
<glyph unicode="&#xd1;" d="M-34 1630l110 276q57 114 224 114q117 0 150 -66l33 66h301l-110 -277q-58 -113 -174 -113q-112 0 -193 81l-40 -81h-301zM-25 -20v1640h300v-18q6 18 125 18h100q165 0 220 -82.5t55 -187.5v-1370h-300v1350h-200v-1350h-300z" />
<glyph unicode="&#xd2;" d="M-25 249v1101q0 156 57 213t218 58l250 -1q161 0 218 -55.5t57 -215.5v-1099q0 -157 -56.5 -213.5t-218.5 -56.5h-250q-162 0 -218.5 56.5t-56.5 212.5zM225 1789v281h300v-431zM275 269h200v1061h-200v-1061z" />
<glyph unicode="&#xd3;" d="M-25 249v1101q0 156 57 213t218 58l250 -1q161 0 218 -55.5t57 -215.5v-1099q0 -157 -56.5 -213.5t-218.5 -56.5h-250q-162 0 -218.5 56.5t-56.5 212.5zM225 1655v281l300 150v-431h-300zM275 269h200v1061h-200v-1061z" />
<glyph unicode="&#xd4;" d="M-25 249v1101q0 156 57 213t218 58l250 -1q161 0 218 -55.5t57 -215.5v-1099q0 -157 -56.5 -213.5t-218.5 -56.5h-250q-162 0 -218.5 56.5t-56.5 212.5zM4 1680l232 290h278l232 -290h-308l-63 63l-63 -63h-308zM275 269h200v1061h-200v-1061z" />
<glyph unicode="&#xd5;" d="M-34 1630l110 276q57 114 224 114q117 0 150 -66l33 66h301l-110 -277q-58 -113 -174 -113q-112 0 -193 81l-40 -81h-301zM-25 249v1101q0 156 57 213t218 58l250 -1q161 0 218 -55.5t57 -215.5v-1099q0 -157 -56.5 -213.5t-218.5 -56.5h-250q-162 0 -218.5 56.5 t-56.5 212.5zM275 269h200v1061h-200v-1061z" />
<glyph unicode="&#xd6;" d="M-25 249v1101q0 156 57 213t218 58l250 -1q161 0 218 -55.5t57 -215.5v-1099q0 -157 -56.5 -213.5t-218.5 -56.5h-250q-162 0 -218.5 56.5t-56.5 212.5zM25 1680v290h300v-290h-300zM275 269h200v1061h-200v-1061zM425 1680v290h300v-290h-300z" />
<glyph unicode="&#xd7;" horiz-adv-x="750" d="M-34 1220h303l31 -88l31 88h303l-189 -479l188 -511h-276l-57 144l-57 -144h-276l188 511z" />
<glyph unicode="&#xd8;" d="M-33 -20l35 100q-27 54 -27 169v1101q0 156 57 213t218 58l250 -1h333l-63 -183q5 -37 5 -88v-1099q0 -157 -56.5 -213.5t-218.5 -56.5h-533zM275 875l156 455h-156v-455zM369 269h106v310z" />
<glyph unicode="&#xd9;" d="M-25 249v1371h300v-1351h200v1351h300v-1370q0 -157 -56.5 -213.5t-218.5 -56.5h-250q-162 0 -218.5 56.5t-56.5 212.5zM225 1789v281h300v-431z" />
<glyph unicode="&#xda;" d="M-25 249v1371h300v-1351h200v1351h300v-1370q0 -157 -56.5 -213.5t-218.5 -56.5h-250q-162 0 -218.5 56.5t-56.5 212.5zM225 1655v281l300 150v-431h-300z" />
<glyph unicode="&#xdb;" d="M-25 249v1371h300v-1351h200v1351h300v-1370q0 -157 -56.5 -213.5t-218.5 -56.5h-250q-162 0 -218.5 56.5t-56.5 212.5zM4 1680l232 290h278l232 -290h-308l-63 63l-63 -63h-308z" />
<glyph unicode="&#xdc;" d="M-25 249v1371h300v-1351h200v1351h300v-1370q0 -157 -56.5 -213.5t-218.5 -56.5h-250q-162 0 -218.5 56.5t-56.5 212.5zM25 1680v290h300v-290h-300zM425 1680v290h300v-290h-300z" />
<glyph unicode="&#xdd;" d="M-25 252v110l300 150v-241h200v527l-500 -233v1055h300v-587l200 79v508h300v-1369q0 -156 -57 -213t-218 -58l-250 1q-161 0 -218 55.5t-57 215.5zM225 1655v281l300 150v-431h-300z" />
<glyph unicode="&#xde;" d="M-25 -20v1640h300v-249h225q161 0 218 -55.5t57 -215.5v-599q0 -157 -56.5 -213.5t-218.5 -56.5h-225v-251h-300zM275 520l200 1v559h-200v-560z" />
<glyph unicode="&#xdf;" d="M-25 -20v1370q0 157 56.5 213.5t218.5 56.5h250q162 0 218.5 -56.5t56.5 -213.5v-350q0 -133 -50 -172q49 -15 50 -128v-450q0 -157 -56.5 -213.5t-218.5 -56.5h-125v290h100v420l-150 -75v347l150 74v294h-200v-1350h-300z" />
<glyph unicode="&#xe0;" horiz-adv-x="850" d="M-25 250v200q0 111 114 168l336 168v145h-150v-167l-300 -150v336q0 157 56.5 213.5t218.5 56.5h213l-238 119v281h300v-404q101 -10 144 -52q56 -57 56 -213v-971h-300v17q-8 -16 -123 -16h-52q-161 0 -218 56q-57 55 -57 213zM275 271h150v168l-150 -75v-93z" />
<glyph unicode="&#xe1;" horiz-adv-x="850" d="M-25 250v200q0 111 114 168l336 168v145h-150v-167l-300 -150v336q0 157 56.5 213.5t218.5 56.5h200q162 0 218.5 -56.5t56.5 -212.5v-971h-300v17q-8 -16 -123 -16h-52q-161 0 -218 56q-57 55 -57 213zM225 1230v281l300 150v-431h-300zM275 271h150v168l-150 -75v-93z " />
<glyph unicode="&#xe2;" horiz-adv-x="850" d="M-25 250v200q0 111 114 168l336 168v145h-150v-167l-300 -150v336q0 157 56.5 213.5t218.5 56.5h200q162 0 218.5 -56.5t56.5 -212.5v-971h-300v17q-8 -16 -123 -16h-52q-161 0 -218 56q-57 55 -57 213zM-21 1280l232 290h278l232 -290h-308l-63 63l-63 -63h-308z M275 271h150v168l-150 -75v-93z" />
<glyph unicode="&#xe3;" horiz-adv-x="850" d="M-34 1230l110 276q57 114 224 114q117 0 150 -66l33 66h301l-110 -277q-58 -113 -174 -113q-112 0 -193 81l-40 -81h-301zM-25 250v200q0 111 114 168l336 168v145h-150v-167l-300 -150v336q0 157 56.5 213.5t218.5 56.5h200q162 0 218.5 -56.5t56.5 -212.5v-971h-300v17 q-8 -16 -123 -16h-52q-161 0 -218 56q-57 55 -57 213zM275 271h150v168l-150 -75v-93z" />
<glyph unicode="&#xe4;" horiz-adv-x="850" d="M-25 250v200q0 111 114 168l336 168v145h-150v-167l-300 -150v336q0 157 56.5 213.5t218.5 56.5h200q162 0 218.5 -56.5t56.5 -212.5v-971h-300v17q-8 -16 -123 -16h-52q-161 0 -218 56q-57 55 -57 213zM0 1230v290h300v-290h-300zM275 271h150v168l-150 -75v-93z M400 1230v290h300v-290h-300z" />
<glyph unicode="&#xe5;" horiz-adv-x="850" d="M-25 250v200q0 111 114 168l336 168v145h-150v-167l-300 -150v336q0 157 56.5 213.5t218.5 56.5h200q162 0 218.5 -56.5t56.5 -212.5v-971h-300v17q-8 -16 -123 -16h-52q-161 0 -218 56q-57 55 -57 213zM200 1230v290h300v-290h-300zM275 271h150v168l-150 -75v-93z" />
<glyph unicode="&#xe6;" horiz-adv-x="1300" d="M-25 250v200q0 111 114 168l336 168v145h-150v-167l-300 -150v336q0 157 56.5 213.5t218.5 56.5h200q81 0 127 -12q46 12 123 12l200 -1q161 0 219 -56q56 -55 56 -213v-310l-450 -226v-145h150v167l300 150v-336q0 -157 -56.5 -213.5t-218.5 -56.5h-475v17 q-8 -16 -123 -16h-52q-161 0 -218 56q-57 55 -57 213zM275 271h150v168l-150 -75v-93zM725 761l150 75v93h-150v-168z" />
<glyph unicode="&#xe7;" horiz-adv-x="850" d="M-25 249v700q0 156 57 213t218 58l200 -1q161 0 218 -55.5t57 -215.5v-110l-300 -150v241h-150v-660h150v167l300 150v-336q0 -157 -57 -214q-52 -52 -168 -55v-130q0 -156 -57 -213t-218 -58h-225v290l200 1v110q-116 3 -168 55q-57 57 -57 213z" />
<glyph unicode="&#xe8;" horiz-adv-x="850" d="M-25 249v700q0 156 57 213t218 58l200 -1h15l-240 120v281h300v-405q101 -10 144 -52q56 -55 56 -213v-310l-450 -226v-145h150v167l300 150v-336q0 -157 -56.5 -213.5t-218.5 -56.5h-200q-162 0 -218.5 56.5t-56.5 212.5zM275 761l150 75v93h-150v-168z" />
<glyph unicode="&#xe9;" horiz-adv-x="850" d="M-25 249v700q0 156 57 213t218 58l200 -1q161 0 219 -56q56 -55 56 -213v-310l-450 -226v-145h150v167l300 150v-336q0 -157 -56.5 -213.5t-218.5 -56.5h-200q-162 0 -218.5 56.5t-56.5 212.5zM225 1230v281l300 150v-431h-300zM275 761l150 75v93h-150v-168z" />
<glyph unicode="&#xea;" horiz-adv-x="850" d="M-25 249v700q0 156 57 213t218 58l200 -1q161 0 219 -56q56 -55 56 -213v-310l-450 -226v-145h150v167l300 150v-336q0 -157 -56.5 -213.5t-218.5 -56.5h-200q-162 0 -218.5 56.5t-56.5 212.5zM-21 1280l232 290h278l232 -290h-308l-63 63l-63 -63h-308zM275 761l150 75 v93h-150v-168z" />
<glyph unicode="&#xeb;" horiz-adv-x="850" d="M-25 249v700q0 156 57 213t218 58l200 -1q161 0 219 -56q56 -55 56 -213v-310l-450 -226v-145h150v167l300 150v-336q0 -157 -56.5 -213.5t-218.5 -56.5h-200q-162 0 -218.5 56.5t-56.5 212.5zM0 1230v290h300v-290h-300zM275 761l150 75v93h-150v-168zM400 1230v290h300 v-290h-300z" />
<glyph unicode="&#xec;" horiz-adv-x="400" d="M-25 -20v1106l253 127l-253 126v281h300v-1640h-300z" />
<glyph unicode="&#xed;" horiz-adv-x="400" d="M-25 -20v1106l288 144h-288v281l300 150v-1681h-300z" />
<glyph unicode="&#xee;" horiz-adv-x="400" d="M-246 1230l232 290h278l232 -290h-221v-1250h-300v1106l288 144h-75l-63 63l-63 -63h-308z" />
<glyph unicode="&#xef;" horiz-adv-x="400" d="M-225 1230v290h300v-290h-300zM-25 -20v1106l288 144h-88v290h300v-290h-200v-1250h-300z" />
<glyph unicode="&#xf0;" horiz-adv-x="850" d="M-25 250v700q0 157 56.5 213.5t218.5 56.5h50q117 0 125 -16v127h-200v289h225q162 0 218.5 -56.5t56.5 -212.5v-1371h-300v17q-8 -16 -125 -18l-50 1q-162 0 -218.5 56.5t-56.5 213.5zM275 270h150v660h-150v-660z" />
<glyph unicode="&#xf1;" horiz-adv-x="850" d="M-34 1230l110 276q57 114 224 114q117 0 150 -66l33 66h301l-110 -277q-58 -113 -174 -113q-112 0 -193 81l-40 -81h-301zM-25 -20v1240h300v-16q8 16 125 16h50q162 0 218.5 -56.5t56.5 -213.5v-970h-300v950h-150v-950h-300z" />
<glyph unicode="&#xf2;" horiz-adv-x="850" d="M-25 249v700q0 156 57 213t218 58h213l-238 119v281h300v-404q100 -11 143 -52q57 -56 57 -216v-698q0 -157 -56.5 -213.5t-218.5 -56.5h-200q-162 0 -218.5 56.5t-56.5 212.5zM275 269h150v660h-150v-660z" />
<glyph unicode="&#xf3;" horiz-adv-x="850" d="M-25 249v700q0 156 57 213t218 58h200q161 -1 218 -56.5t57 -215.5v-698q0 -157 -56.5 -213.5t-218.5 -56.5h-200q-162 0 -218.5 56.5t-56.5 212.5zM225 1230v281l300 150v-431h-300zM275 269h150v660h-150v-660z" />
<glyph unicode="&#xf4;" horiz-adv-x="850" d="M-25 249v700q0 156 57 213t218 58h200q161 -1 218 -56.5t57 -215.5v-698q0 -157 -56.5 -213.5t-218.5 -56.5h-200q-162 0 -218.5 56.5t-56.5 212.5zM-21 1280l232 290h278l232 -290h-308l-63 63l-63 -63h-308zM275 269h150v660h-150v-660z" />
<glyph unicode="&#xf5;" horiz-adv-x="850" d="M-34 1230l110 276q57 114 224 114q117 0 150 -66l33 66h301l-110 -277q-58 -113 -174 -113q-112 0 -193 81l-40 -81h-301zM-25 249v700q0 156 57 213t218 58h200q161 -1 218 -56.5t57 -215.5v-698q0 -157 -56.5 -213.5t-218.5 -56.5h-200q-162 0 -218.5 56.5t-56.5 212.5 zM275 269h150v660h-150v-660z" />
<glyph unicode="&#xf6;" horiz-adv-x="850" d="M-25 249v700q0 156 57 213t218 58h200q161 -1 218 -56.5t57 -215.5v-698q0 -157 -56.5 -213.5t-218.5 -56.5h-200q-162 0 -218.5 56.5t-56.5 212.5zM0 1230v290h300v-290h-300zM275 269h150v660h-150v-660zM400 1230v290h300v-290h-300z" />
<glyph unicode="&#xf7;" horiz-adv-x="950" d="M-25 365v347l537 268h-287v290h300v-284l300 150v-346l-540 -270h290v-290h-300v285z" />
<glyph unicode="&#xf8;" horiz-adv-x="850" d="M-33 -20l36 98q-28 53 -28 171v700q0 156 57 213t218 58h484l-37 -96q28 -53 28 -176v-698q0 -157 -56.5 -213.5t-218.5 -56.5h-483zM275 803l47 126h-47v-126zM358 269h67v169z" />
<glyph unicode="&#xf9;" horiz-adv-x="850" d="M-25 250v970h300v-950h150v950h38l-238 119v281h300v-400h200v-1240h-300v16q-8 -16 -125 -16h-50q-162 0 -218.5 56.5t-56.5 213.5z" />
<glyph unicode="&#xfa;" horiz-adv-x="850" d="M-25 250v970h300v-950h150v950h300v-1240h-300v16q-8 -16 -125 -16h-50q-162 0 -218.5 56.5t-56.5 213.5zM225 1230v281l300 150v-431h-300z" />
<glyph unicode="&#xfb;" horiz-adv-x="850" d="M-25 250v970h300v-950h150v950h300v-1240h-300v16q-8 -16 -125 -16h-50q-162 0 -218.5 56.5t-56.5 213.5zM-21 1280l232 290h278l232 -290h-308l-63 63l-63 -63h-308z" />
<glyph unicode="&#xfc;" horiz-adv-x="850" d="M-25 250v970h300v-950h150v950h300v-1240h-300v16q-8 -16 -125 -16h-50q-162 0 -218.5 56.5t-56.5 213.5zM0 1230v290h300v-290h-300zM400 1230v290h300v-290h-300z" />
<glyph unicode="&#xfd;" horiz-adv-x="850" d="M-25 66v1154h300v-689l150 49v639h300v-1369q0 -156 -57 -213t-218 -58l-200 2q-161 0 -218 55.5t-57 224.5l300 150v-140l150 -1v396zM225 1230v281l300 150v-431h-300z" />
<glyph unicode="&#xfe;" horiz-adv-x="850" d="M-25 -20v1640h300v-266q8 16 125 16h50q162 0 218.5 -56.5t56.5 -213.5v-600q0 -157 -56.5 -213.5t-218.5 -56.5l-50 -1q-117 2 -125 18v-267h-300zM275 520h150v560h-150v-560z" />
<glyph unicode="&#xff;" horiz-adv-x="850" d="M-25 66v1154h300v-689l150 49v639h300v-1369q0 -156 -57 -213t-218 -58l-200 2q-161 0 -218 55.5t-57 224.5l300 150v-140l150 -1v396zM0 1230v290h300v-290h-300zM400 1230v290h300v-290h-300z" />
<glyph unicode="&#x152;" horiz-adv-x="1300" d="M-25 249v1101q0 156 57 213t218 58l250 -1h675v-290h-400v-393l400 199v-346l-400 -200v-320h400l-1 -290h-924q-162 0 -218.5 56.5t-56.5 212.5zM275 269h200v1061h-200v-1061z" />
<glyph unicode="&#x153;" horiz-adv-x="1300" d="M-25 249v700q0 156 57 213t218 58h200q80 -1 126 -12q46 12 124 12l200 -1q161 0 219 -56q56 -55 56 -213v-310l-450 -226v-145h150v167l300 150v-336q0 -157 -56.5 -213.5t-218.5 -56.5h-200q-79 0 -125 12q-46 -12 -125 -12h-200q-162 0 -218.5 56.5t-56.5 212.5z M275 269h150v660h-150v-660zM725 761l150 75v93h-150v-168z" />
<glyph unicode="&#x2c6;" horiz-adv-x="800" d="M-46 1680l232 290h278l232 -290h-308l-63 63l-63 -63h-308z" />
<glyph unicode="&#x2dc;" d="M-34 1630l110 276q57 114 224 114q117 0 150 -66l33 66h301l-110 -277q-58 -113 -174 -113q-112 0 -193 81l-40 -81h-301z" />
<glyph unicode="&#x2000;" horiz-adv-x="1043" />
<glyph unicode="&#x2001;" horiz-adv-x="2086" />
<glyph unicode="&#x2002;" horiz-adv-x="1043" />
<glyph unicode="&#x2003;" horiz-adv-x="2086" />
<glyph unicode="&#x2004;" horiz-adv-x="695" />
<glyph unicode="&#x2005;" horiz-adv-x="521" />
<glyph unicode="&#x2006;" horiz-adv-x="347" />
<glyph unicode="&#x2007;" horiz-adv-x="347" />
<glyph unicode="&#x2008;" horiz-adv-x="260" />
<glyph unicode="&#x2009;" horiz-adv-x="417" />
<glyph unicode="&#x200a;" horiz-adv-x="115" />
<glyph unicode="&#x2010;" horiz-adv-x="750" d="M-25 464v347l650 325v-346z" />
<glyph unicode="&#x2011;" horiz-adv-x="750" d="M-25 464v347l650 325v-346z" />
<glyph unicode="&#x2012;" horiz-adv-x="750" d="M-25 464v347l650 325v-346z" />
<glyph unicode="&#x2013;" horiz-adv-x="750" d="M-25 464v347l650 325v-346z" />
<glyph unicode="&#x2014;" horiz-adv-x="950" d="M-25 365v347l850 424v-346z" />
<glyph unicode="&#x2018;" horiz-adv-x="400" d="M-25 1339v281h300v-431z" />
<glyph unicode="&#x2019;" horiz-adv-x="400" d="M-25 1189v431h300v-281z" />
<glyph unicode="&#x201a;" horiz-adv-x="400" d="M-25 -161v431h300v-281z" />
<glyph unicode="&#x201c;" horiz-adv-x="750" d="M-25 1339v281h300v-431zM325 1339v281h300v-431z" />
<glyph unicode="&#x201d;" horiz-adv-x="750" d="M-25 1189v431h300v-281zM325 1189v431h300v-281z" />
<glyph unicode="&#x201e;" horiz-adv-x="800" d="M-25 -161v431h300v-281zM375 -161v431h300v-281z" />
<glyph unicode="&#x2022;" horiz-adv-x="1229" d="M234 862q0 154 111 264t270 110t269 -110.5t110 -263.5q0 -154 -111.5 -265.5t-269.5 -111.5q-160 0 -269.5 111t-109.5 266z" />
<glyph unicode="&#x2026;" horiz-adv-x="1200" d="M-25 -20v290h300v-290h-300zM375 -20v290h300v-290h-300zM775 -20v290h300v-290h-300z" />
<glyph unicode="&#x202f;" horiz-adv-x="417" />
<glyph unicode="&#x2039;" horiz-adv-x="750" d="M-25 539v421l650 379v-349l-396 -231l396 -198v-347z" />
<glyph unicode="&#x203a;" horiz-adv-x="750" d="M-25 214v347l396 198l-396 231v349l650 -379v-421z" />
<glyph unicode="&#x205f;" horiz-adv-x="521" />
<glyph unicode="&#x20ac;" horiz-adv-x="1050" d="M-25 480v290h150v60h-150v290h150v230q0 156 57 213t218 58l250 -1q161 0 218 -55.5t57 -215.5v-110l-300 -150v241h-200v-210h150v-290h-150v-60h150v-290h-150v-211h200v167l300 150v-336q0 -157 -56.5 -213.5t-218.5 -56.5h-250q-162 0 -218.5 56.5t-56.5 212.5v231 h-150z" />
<glyph unicode="&#x2122;" horiz-adv-x="1175" d="M-25 1455v165h455v-88q8 38 27 57q31 31 118 31h325q87 0 118.5 -31.5t31.5 -112.5v-696h-175v676h-50v-676h-175v676h-50v-676h-175v675h-137v-675h-175v675h-138z" />
<glyph unicode="&#x25fc;" horiz-adv-x="1220" d="M0 0v1220h1220v-1220h-1220z" />
</font>
</defs>
</svg>
