<?xml version="1.0" standalone="no"?>
<!DOCTYPE svg PUBLIC "-//W3C//DTD SVG 1.1//EN" "http://www.w3.org/Graphics/SVG/1.1/DTD/svg11.dtd" >
<svg xmlns="http://www.w3.org/2000/svg" xmlns:xlink="http://www.w3.org/1999/xlink" version="1.1">
<metadata></metadata>
<defs>
<font id="roddenberryregular" horiz-adv-x="900" >
<font-face units-per-em="2048" ascent="1638" descent="-410" />
<missing-glyph horiz-adv-x="712" />
<glyph horiz-adv-x="0" />
<glyph unicode="&#xd;" horiz-adv-x="610" />
<glyph unicode=" "  horiz-adv-x="712" />
<glyph unicode="&#x09;" horiz-adv-x="712" />
<glyph unicode="&#xa0;" horiz-adv-x="712" />
<glyph unicode="!" horiz-adv-x="400" d="M0 0v250h250v-250h-250zM0 400v1200h250v-1200h-250z" />
<glyph unicode="&#x22;" horiz-adv-x="750" d="M0 1225v375h250v-250zM350 1225v375h250v-250z" />
<glyph unicode="#" horiz-adv-x="1250" d="M0 150v300l225 112v151l-225 -113v300l225 112v338h250v-213l150 75v338h250v-213l225 112v-299l-225 -112v-151l225 112v-299l-225 -112v-338h-250v213l-75 -38l-75 -37v-338h-250v213zM475 687l150 75v151l-75 -38l-75 -37v-151z" />
<glyph unicode="$" d="M0 351l250 125v-126h250v399l-500 -249v750q0 149 50.5 199.5t199.5 51.5v99h250v-100q149 0 199.5 -49t50.5 -201l-250 -125v125h-250v-375l500 250v-775q0 -149 -50.5 -199.5t-199.5 -51.5v-99h-250v100q-149 0 -199.5 49t-50.5 202z" />
<glyph unicode="%" horiz-adv-x="1350" d="M0 1099v151q0 149 50.5 199.5t199.5 51.5l100 1q149 -1 199.5 -50t50.5 -202v-86l150 436h250l-299 -870q55 20 149 21l100 1q149 -1 199.5 -50t50.5 -202v-149q0 -150 -50 -200t-200 -50l-100 -1q-150 0 -200 50t-50 199v87l-150 -436h-250l299 871q-54 -20 -149 -20 l-100 -1q-150 0 -200 50t-50 199zM250 1099l100 1v151l-100 -1v-151zM850 349l100 1v151l-100 -1v-151z" />
<glyph unicode="&#x26;" horiz-adv-x="950" d="M0 250v350q1 126 75 175q-74 25 -75 125v450q0 150 50 200t200 50h250q150 0 200 -50t50 -200v-43l-250 -89v132h-250v-449l75 37v-299l-75 -38v-351h250v300l-100 -50v300l400 199v-299l-50 -25v-425q0 -150 -50 -200t-200 -50h-250q-150 0 -200 75t-50 175z" />
<glyph unicode="'" horiz-adv-x="400" d="M0 1225v375h250v-250z" />
<glyph unicode="(" horiz-adv-x="650" d="M0 50v1500q0 99 75 174.5t175 75.5h250v-250h-250v-1501h250v-250h-250q-100 1 -175 76t-75 175z" />
<glyph unicode=")" horiz-adv-x="650" d="M0 48h250v1502h-250v250h250q100 -1 175 -76t75 -176v-1499q0 -100 -75 -175t-175 -75h-250v249z" />
<glyph unicode="*" horiz-adv-x="850" d="M0 750l159 300h-159v250h159l-159 300h250l100 -189l100 189h250l-159 -300h159v-250h-159l159 -300h-250l-100 189l-100 -189h-250z" />
<glyph unicode="+" horiz-adv-x="850" d="M0 500v300l225 112v338h250v-213l225 112v-299l-225 -112v-338h-250v213z" />
<glyph unicode="," horiz-adv-x="400" d="M0 -125v375h250v-250z" />
<glyph unicode="-" horiz-adv-x="750" d="M0 500v300l600 300v-299z" />
<glyph unicode="." horiz-adv-x="400" d="M0 0v250h250v-250h-250z" />
<glyph unicode="/" horiz-adv-x="950" d="M0 0l550 1600h250l-550 -1600h-250z" />
<glyph unicode="0" d="M0 249v1101q0 149 50.5 199.5t199.5 51.5l250 -1q149 0 199.5 -49t50.5 -202v-1099q0 -150 -50 -200t-200 -50h-250q-150 0 -200 50t-50 199zM250 249h250v1101h-250v-1101z" />
<glyph unicode="1" horiz-adv-x="666" d="M74 1133v260l443 232v-1625h-240l2 1236z" />
<glyph unicode="2" d="M0 0v675q0 101 100 150l400 200v325h-250v-175l-250 -125v300q0 150 50 200t200 50h250q150 0 200 -50t50 -200v-350q0 -150 -100 -199l-400 -201v-350h500v-250h-750z" />
<glyph unicode="3" d="M0 250v150l250 125v-275h250v476l-150 -75v300l150 74v325h-250v-175l-250 -125v300q0 150 50 200t200 50h250q150 0 200 -50t50 -200v-350q0 -125 -70 -180q69 -21 70 -120v-450q0 -150 -50 -200t-200 -50h-250q-150 0 -200 75t-50 175z" />
<glyph unicode="4" d="M0 475v1125h250v-700l250 125v325h250v-1350h-250v725z" />
<glyph unicode="5" d="M0 249v76l250 125v-201h250v476l-500 -250v1125h750v-250h-500v-450l500 250v-900q0 -150 -50 -200t-200 -50h-250q-150 0 -200 50t-50 199z" />
<glyph unicode="6" d="M0 249v1101q0 149 50.5 199.5t199.5 51.5l250 -1q149 0 199.5 -49t50.5 -202v-99l-250 -125v225h-250v-550l500 250v-800q0 -150 -50 -200t-200 -50h-250q-150 0 -200 50t-50 199zM250 249h250v376l-250 -125v-251z" />
<glyph unicode="7" d="M0 1350v250h750v-600q0 -150 -100 -199l-250 -126v-675h-250v750q0 101 100 150l250 125v325h-500z" />
<glyph unicode="8" d="M0 250v350q1 126 75 175q-74 25 -75 125v450q0 150 50 200t200 50h250q150 0 200 -50t50 -200v-350q0 -125 -70 -180q69 -21 70 -120v-450q0 -150 -50 -200t-200 -50h-250q-150 0 -200 75t-50 175zM250 250h250v476l-250 -125v-351zM250 901l250 124v325h-250v-449z" />
<glyph unicode="9" d="M0 252v99l250 125v-225h250v550l-500 -250v800q0 150 50 200t200 50h250q150 0 200 -50t50 -199v-1101q0 -149 -50.5 -199.5t-199.5 -51.5l-250 1q-149 0 -199.5 49t-50.5 202zM250 976l250 125v251h-250v-376z" />
<glyph unicode=":" horiz-adv-x="400" d="M0 0v250h250v-250h-250zM0 500v250h250v-250h-250z" />
<glyph unicode=";" horiz-adv-x="400" d="M0 -125v375h250v-250zM0 500v250h250v-250h-250z" />
<glyph unicode="&#x3c;" horiz-adv-x="750" d="M0 550v400l600 350v-300l-415 -242l415 -208v-300z" />
<glyph unicode="=" horiz-adv-x="750" d="M0 250v300l600 300v-299zM0 700v300l600 300v-299z" />
<glyph unicode="&#x3e;" horiz-adv-x="750" d="M0 250v300l415 242l-415 208v300l600 -300v-400z" />
<glyph unicode="?" d="M0 1050v300q0 150 50 200t200 50h250q150 0 200 -50t50 -200v-350q0 -150 -100 -199l-150 -76v-325h-250v400q0 101 100 150l150 75v325h-250v-175zM250 0v250h250v-250h-250z" />
<glyph unicode="@" horiz-adv-x="1150" d="M0 250v1100q0 100 75 175t175 75h500q100 0 175 -75t75 -175v-950h-250v100q-50 -99 -150 -100q-150 0 -200 50t-50 200v300q0 150 50 200t200 50q100 0 150 -100v250h-500v-1100h750v-250h-750q-100 0 -175 75t-75 175zM600 650h150v300h-150v-300z" />
<glyph unicode="A" d="M0 0v1350q0 150 50 200t200 50h250q150 0 200 -50t50 -200v-1350h-250v725l-250 -125v-600h-250zM250 900l250 125v325h-250v-450z" />
<glyph unicode="B" d="M0 0v1600h500q150 0 200 -50t50 -200v-350q0 -125 -70 -180q69 -21 70 -120v-450q0 -150 -50 -200t-200 -50h-500zM250 250h250v476l-250 -125v-351zM250 901l250 124v325h-250v-449z" />
<glyph unicode="C" d="M0 249v1101q0 149 50.5 199.5t199.5 51.5l250 -1q149 0 199.5 -49t50.5 -202v-99l-250 -125v225h-250v-1101h250v176l250 125v-300q0 -150 -50 -200t-200 -50h-250q-150 0 -200 50t-50 199z" />
<glyph unicode="D" d="M0 -1v1601h500q149 0 199.5 -49t50.5 -202v-1099q0 -150 -50 -200t-200 -50zM250 249l250 1v1099h-250v-1100z" />
<glyph unicode="E" horiz-adv-x="800" d="M0 0v1600h650v-250h-400v-449l400 199v-299l-400 -200v-351h400l-1 -250h-649z" />
<glyph unicode="F" horiz-adv-x="800" d="M0 0v1600h650v-250h-400v-449l400 199v-299l-400 -200v-601h-250z" />
<glyph unicode="G" d="M0 249v1101q0 149 50.5 199.5t199.5 51.5l250 -1q149 0 199.5 -49t50.5 -202v-99l-250 -125v225h-250v-1101h250v376l-150 -75v300l400 200v-800q0 -150 -50 -200t-200 -50h-250q-150 0 -200 50t-50 199z" />
<glyph unicode="H" d="M0 0v1600h250v-700l250 125v575h250v-1600h-250v725l-250 -125v-600h-250z" />
<glyph unicode="I" horiz-adv-x="400" d="M0 0v1600h250v-1600h-250z" />
<glyph unicode="J" d="M0 252v99l250 125v-225h250v1349h250v-1349q0 -149 -50.5 -199.5t-199.5 -51.5l-250 1q-149 0 -199.5 49t-50.5 202z" />
<glyph unicode="K" d="M0 0v1600h250v-600l250 600h250l-296 -711l296 -889h-250l-185 556l-65 -156v-400h-250z" />
<glyph unicode="L" horiz-adv-x="750" d="M0 0v1601h250v-1351h349v-250h-599z" />
<glyph unicode="M" horiz-adv-x="1300" d="M0 0v1350q0 150 50 200t200 50h200q100 0 125 -75q25 75 125 75h200q150 0 200 -50t50 -199v-1351h-250v1351h-200v-1351h-250v1351h-200v-1351h-250z" />
<glyph unicode="N" d="M0 0v1600h250v-150q50 150 150 150h100q150 0 200 -75t50 -175v-1350h-250v1350h-250v-1350h-250z" />
<glyph unicode="O" d="M0 249v1101q0 149 50.5 199.5t199.5 51.5l250 -1q149 0 199.5 -49t50.5 -202v-1099q0 -150 -50 -200t-200 -50h-250q-150 0 -200 50t-50 199zM250 249h250v1101h-250v-1101z" />
<glyph unicode="P" d="M0 0v1600h500q150 0 200 -50t50 -200v-350q0 -150 -100 -199l-400 -200v-601h-250zM250 901l250 124v325h-250v-449z" />
<glyph unicode="Q" d="M0 249v1101q0 149 50.5 199.5t199.5 51.5l250 -1q149 0 199.5 -49t50.5 -202v-1099q0 -56 -7 -97l107 -153l-200 -150l-106 151q-21 -1 -44 -1h-250q-150 0 -200 50t-50 199zM250 249h121l-71 101l200 150v850h-250v-1101z" />
<glyph unicode="R" d="M0 0v1600h500q150 0 200 -50t50 -200v-350q0 -150 -100 -199l-191 -95l291 -706h-250l-248 602l-2 -1v-601h-250zM250 901l250 124v325h-250v-449z" />
<glyph unicode="S" d="M0 252v99l250 125v-225h250v498l-500 -249v850q0 149 50.5 199.5t199.5 51.5l250 -1q149 0 199.5 -49t50.5 -202v-99l-250 -125v225h-250v-475l500 250v-874q0 -149 -50.5 -199.5t-199.5 -51.5l-250 1q-149 0 -199.5 49t-50.5 202z" />
<glyph unicode="T" horiz-adv-x="950" d="M0 1349v251h810v-251h-285v-1349h-250v1350z" />
<glyph unicode="U" d="M0 249v1351h250v-1351h250v1351h250v-1350q0 -150 -50 -200t-200 -50h-250q-150 0 -200 50t-50 199z" />
<glyph unicode="V" d="M0 0v1600h250v-1199l250 99v1100h250v-1250z" />
<glyph unicode="W" horiz-adv-x="1300" d="M0 249v1351h250v-1351h200v1351h250v-1351h200v1351h250v-1350q0 -150 -50 -200t-200 -50h-200q-100 0 -125 75q-25 -75 -125 -75h-200q-150 0 -200 50t-50 199z" />
<glyph unicode="X" horiz-adv-x="950" d="M0 0l275 800l-275 800h250l150 -436l150 436h250l-275 -800l275 -800h-250l-150 436l-150 -436h-250z" />
<glyph unicode="Y" d="M0 252v99l250 125v-225h250v582l-500 -233v1000h250v-599l250 99v500h250v-1349q0 -149 -50.5 -199.5t-199.5 -51.5l-250 1q-149 0 -199.5 49t-50.5 202z" />
<glyph unicode="Z" d="M0 0v250l475 1100h-475v250h750v-250l-474 -1101l474 1v-250h-750z" />
<glyph unicode="[" horiz-adv-x="650" d="M0 -201v2002h500l1 -250l-251 -1v-1501h250v-250h-500z" />
<glyph unicode="\" horiz-adv-x="950" d="M0 1600h250l550 -1600h-250z" />
<glyph unicode="]" horiz-adv-x="650" d="M0 1551l1 250h500v-2002h-500v250h250v1501z" />
<glyph unicode="^" horiz-adv-x="800" d="M0 1700l200 250h250l200 -250h-250l-75 75l-75 -75h-250z" />
<glyph unicode="_" horiz-adv-x="1350" d="M0 0l1200 -1v-249h-1200v250z" />
<glyph unicode="`" horiz-adv-x="400" d="M0 1800v250h250v-375z" />
<glyph unicode="a" horiz-adv-x="850" d="M0 250v200q0 100 100 150l350 175v176h-200v-176l-250 -125v300q0 150 50 200t200 50h200q150 0 200 -50t50 -199v-951h-250v100q-50 -99 -148 -99h-52q-149 0 -199 49q-51 49 -51 200zM250 251h200v224l-200 -100v-124z" />
<glyph unicode="b" horiz-adv-x="850" d="M0 0v1475l250 125v-500q50 100 150 100h50q150 0 200 -50t50 -200v-700q0 -150 -50 -200t-200 -50l-50 -1q-100 2 -150 101v-100h-250zM250 250h200v700h-200v-700z" />
<glyph unicode="c" horiz-adv-x="850" d="M0 249v700q0 149 50.5 199.5t199.5 51.5l200 -1q149 0 199.5 -49t50.5 -202v-99l-250 -125v225h-200v-700h200v176l250 125v-300q0 -150 -50 -200t-200 -50h-200q-150 0 -200 50t-50 199z" />
<glyph unicode="d" horiz-adv-x="850" d="M0 250v700q0 150 50 200t200 50h50q100 0 150 -100v375l250 125v-1600h-250v100q-50 -99 -150 -101l-50 1q-150 0 -200 50t-50 200zM250 250h200v700h-200v-700z" />
<glyph unicode="e" horiz-adv-x="850" d="M0 249v700q0 149 50.5 199.5t199.5 51.5l200 -1q149 0 200 -49q50 -49 50 -200v-299l-450 -226v-176h200v176l250 125v-300q0 -150 -50 -200t-200 -50h-200q-150 0 -200 50t-50 199zM250 725l200 100v124h-200v-224z" />
<glyph unicode="f" horiz-adv-x="750" d="M0 500v300l150 75v474q0 149 50.5 199.5t199.5 51.5l200 -2v-250l-200 1v-349l200 100v-299l-200 -100v-701h-250v575z" />
<glyph unicode="g" horiz-adv-x="850" d="M0 -149l250 125v-124l200 -1v249q-50 -99 -150 -101l-50 1q-150 0 -200 50t-50 200v700q0 150 50 200t200 50h50q100 0 150 -100v100h250v-1349q0 -149 -50.5 -199.5t-199.5 -51.5l-200 2q-149 0 -199.5 49t-50.5 200zM250 250h200v700h-200v-700z" />
<glyph unicode="h" horiz-adv-x="850" d="M0 0v1475l250 125v-500q50 100 150 100h50q150 0 200 -50t50 -200v-950h-250v950h-200v-950h-250z" />
<glyph unicode="i" horiz-adv-x="400" d="M0 0v1075l250 125v-1200h-250zM0 1225v250l250 125v-250z" />
<glyph unicode="j" horiz-adv-x="600" d="M0 -148l200 -1v1224l250 125v-1349q0 -149 -50.5 -199.5t-199.5 -51.5l-200 2v250zM200 1225v250l250 125v-250z" />
<glyph unicode="k" horiz-adv-x="850" d="M0 0v1475l250 125v-823l200 423h250l-292 -616l292 -584h-250l-164 327l-36 -77v-250h-250z" />
<glyph unicode="l" horiz-adv-x="400" d="M0 0v1475l250 125v-1600h-250z" />
<glyph unicode="m" horiz-adv-x="1300" d="M0 0v1200h250v-100q50 100 150 100h50q150 0 250 -100q50 100 150 100h50q100 0 175 -75t75 -175v-950h-250v950h-200v-950h-250v950h-200v-950h-250z" />
<glyph unicode="n" horiz-adv-x="850" d="M0 0v1200h250v-100q50 100 150 100h50q150 0 200 -50t50 -200v-950h-250v950h-200v-950h-250z" />
<glyph unicode="o" horiz-adv-x="850" d="M0 249v700q0 149 50.5 199.5t199.5 51.5h200q149 -1 199.5 -50t50.5 -202v-698q0 -150 -50 -200t-200 -50h-200q-150 0 -200 50t-50 199zM250 249h200v700h-200v-700z" />
<glyph unicode="p" horiz-adv-x="850" d="M0 -400v1600h250v-100q50 100 150 100h50q150 0 200 -50t50 -200v-700q0 -150 -50 -200t-200 -50l-50 -1q-100 2 -150 101v-500h-250zM250 250h200v700h-200v-700z" />
<glyph unicode="q" horiz-adv-x="850" d="M0 250v700q0 150 50 200t200 50h50q100 0 150 -100v100h250v-1600h-250v500q-50 -99 -150 -101l-50 1q-150 0 -200 50t-50 200zM250 250h200v700h-200v-700z" />
<glyph unicode="r" horiz-adv-x="850" d="M0 0v1200h250v-100q50 100 150 100h50q150 0 200 -50t50 -200v-50l-250 -125v175h-200v-950h-250z" />
<glyph unicode="s" horiz-adv-x="850" d="M0 251l250 125v-126h200v298l-450 -248v651q0 149 50.5 199.5t199.5 51.5l200 -2q149 0 199.5 -49t50.5 -202l-250 -125v126l-200 1v-276l450 225v-650q0 -149 -50.5 -199.5t-199.5 -51.5l-200 3q-149 0 -199.5 49t-50.5 200z" />
<glyph unicode="t" horiz-adv-x="750" d="M0 600v300l150 75v300l250 125v-300l200 100v-299l-200 -100v-550l200 1v-250l-200 -2q-149 1 -199.5 51.5t-50.5 199.5v424z" />
<glyph unicode="u" horiz-adv-x="850" d="M0 250v950h250v-950h200v950h250v-1200h-250v100q-50 -100 -150 -100h-50q-150 0 -200 50t-50 200z" />
<glyph unicode="v" d="M0 0v1200h250v-799l250 99v700h250v-850z" />
<glyph unicode="w" horiz-adv-x="1300" d="M0 249v951h250v-951h200v951h250v-951h200v951h250v-950q0 -150 -50 -200t-200 -50h-200q-100 0 -125 75q-25 -75 -125 -75h-200q-150 0 -200 50t-50 199z" />
<glyph unicode="x" horiz-adv-x="850" d="M0 0l231 616l-231 584h250l100 -267l100 267h250l-231 -584l231 -616h-225l-125 316l-125 -316h-225z" />
<glyph unicode="y" horiz-adv-x="850" d="M0 100v1100h250v-699l200 66v632h250v-1349q0 -149 -50.5 -199.5t-199.5 -51.5l-200 2q-149 0 -199.5 49t-50.5 200l250 125v-124l200 -1v450z" />
<glyph unicode="z" horiz-adv-x="850" d="M0 0v250l425 701h-425v250h700v-250l-474 -702l474 1v-250h-700z" />
<glyph unicode="{" horiz-adv-x="725" d="M0 661v299l75 38v552q0 100 75 175t175 75h250v-249h-250v-552q-1 -126 -75 -175q74 -25 75 -125v-650h250v-250h-250q-100 1 -175 76t-75 176v647z" />
<glyph unicode="|" horiz-adv-x="400" d="M0 -350v2150l250 1v-2150z" />
<glyph unicode="}" horiz-adv-x="725" d="M0 48h250v552q1 126 75 175q-74 25 -75 125v650h-250v250h250q100 -1 175 -76t75 -176v-647l75 37v-299l-75 -38v-552q0 -100 -75 -175t-175 -75h-250v249z" />
<glyph unicode="~" d="M0 1650l100 250q50 100 200 100q100 0 150 -100l50 100h250l-100 -250q-51 -100 -150 -100q-100 0 -200 100l-50 -100h-250z" />
<glyph unicode="&#xa1;" horiz-adv-x="400" d="M0 0v1200h250v-1200h-250zM0 1350v250h250v-250h-250z" />
<glyph unicode="&#xa2;" d="M0 349v500q0 149 50.5 199.5t199.5 51.5v100h250v-101q149 0 199.5 -49t50.5 -202v-48l-250 -125v174h-250v-500h250v126l250 125v-250q0 -150 -50 -200t-200 -50v-100h-250v100q-150 0 -200 50t-50 199z" />
<glyph unicode="&#xa3;" horiz-adv-x="975" d="M0 0v251h175v237l-175 -88v300l175 88v562q0 149 50.5 199.5t199.5 51.5l150 -1q149 0 199.5 -49t50.5 -202v-99l-250 -125v225h-150v-437l175 87v-299l-175 -88v-364l400 1v-250h-825z" />
<glyph unicode="&#xa4;" horiz-adv-x="850" d="M0 200l101 270q-32 11 -51 30q-50 50 -50 199v199q0 149 51 200q20 20 56 32l-107 270h250l94 -251h12l94 251h250l-107 -269q36 -12 57 -32q50 -49 50 -202v-197q0 -150 -50 -200q-19 -19 -51 -30l101 -270h-225l-99 250h-52l-99 -250h-225zM250 701h200v199h-200v-199z " />
<glyph unicode="&#xa5;" horiz-adv-x="950" d="M0 1600h250l150 -436l150 436h250l-187 -543l87 43v-299l-175 -88v-150l175 87v-299l-175 -88v-263h-250v138l-175 -88v300l175 88v150l-175 -88v300l149 75z" />
<glyph unicode="&#xa6;" horiz-adv-x="400" d="M0 -350v850l250 125v-974zM0 800v1000l250 1v-876z" />
<glyph unicode="&#xa7;" d="M0 1v99l250 125v-225h250v300h-250q-150 1 -200 51q-41 41 -48 150l-2 -1v1100q0 149 50.5 199.5t199.5 51.5l250 -1q149 0 199.5 -49t50.5 -202v-99l-250 -125v225h-250v-299l250 -1q149 -1 200 -50q36 -36 46 -127l4 2v-1125q0 -149 -50.5 -199.5t-199.5 -50.5h-250 q-149 0 -199.5 49t-50.5 202zM250 550l250 -1v501h-250v-500z" />
<glyph unicode="&#xa8;" horiz-adv-x="800" d="M0 1700v250h250v-250h-250zM400 1700v250h250v-250h-250z" />
<glyph unicode="&#xa9;" horiz-adv-x="1100" d="M0 450v899q0 149 50.5 199.5t199.5 51.5h450q149 0 199.5 -49t50.5 -202v-897q0 -150 -50 -200t-200 -50l-450 -1q-150 0 -200 50t-50 199zM250 450l450 1v899h-450v-900zM300 623v551q0 74 25.5 99.5t99.5 25.5l100 1q75 0 100 -24.5t25 -101.5v-49l-125 -63v113 l-100 -1v-551l100 1v88l125 63v-150q0 -75 -25 -100t-100 -25l-100 -1q-75 0 -100 25t-25 99z" />
<glyph unicode="&#xaa;" horiz-adv-x="850" d="M0 650v200q0 100 100 150l350 175v176h-200v-176l-250 -125v300q0 150 50 200t200 50h200q150 0 200 -50t50 -199v-951h-250v100q-50 -99 -148 -99h-52q-149 0 -199 49q-51 49 -51 200zM250 651h200v224l-200 -100v-124z" />
<glyph unicode="&#xab;" horiz-adv-x="1400" d="M0 550v400l600 350v-300l-415 -242l415 -208v-300zM650 550v400l600 350v-300l-415 -242l415 -208v-300z" />
<glyph unicode="&#xac;" horiz-adv-x="1216" d="M104 800v120h1008v-589l-1 -1h-118v470h-889z" />
<glyph unicode="&#xad;" horiz-adv-x="750" d="M0 500v300l600 300v-299z" />
<glyph unicode="&#xae;" horiz-adv-x="1100" d="M0 450v899q0 149 50.5 199.5t199.5 51.5h450q149 0 199.5 -49t50.5 -202v-897q0 -150 -50 -200t-200 -50l-450 -1q-150 0 -200 50t-50 199zM250 450l450 1v899h-450v-900zM300 500v800h225q75 0 100 -25t25 -100v-175q0 -75 -50 -99l-95 -48l145 -353h-125l-99 301h-1 v-301h-125zM425 951l100 62v162h-100v-224z" />
<glyph unicode="&#xaf;" horiz-adv-x="1200" d="M0 1700v250l1200 -1v-249h-1200z" />
<glyph unicode="&#xb0;" horiz-adv-x="850" d="M0 1150v199q0 149 50.5 199.5t199.5 51.5h200q149 -1 199.5 -50t50.5 -202v-197q0 -150 -50 -200t-200 -50h-200q-150 0 -200 50t-50 199zM250 1150h200v199h-200v-199z" />
<glyph unicode="&#xb1;" horiz-adv-x="850" d="M0 50v300l700 349v-299zM0 750v300l225 112v338h250v-213l225 112v-299l-225 -112v-338h-250v213z" />
<glyph unicode="&#xb2;" horiz-adv-x="850" d="M0 400v475q0 101 100 150l350 200v125h-200v-75l-250 -125v200q0 150 50 200t200 50h200q150 0 200 -50t50 -200v-150q0 -150 -100 -199l-350 -201v-150h450v-250h-700z" />
<glyph unicode="&#xb3;" horiz-adv-x="850" d="M0 650v51l250 125v-176h200v275l-150 -75v300l150 74v126h-200v-75l-250 -125v200q0 150 50 200t200 50h200q150 0 200 -50t50 -200v-151q0 -125 -70 -180q69 -21 70 -120v-249q0 -150 -50 -200t-200 -50h-200q-150 0 -200 75t-50 175z" />
<glyph unicode="&#xb4;" horiz-adv-x="400" d="M0 1675v250l250 125v-375h-250z" />
<glyph unicode="&#xb5;" horiz-adv-x="850" d="M0 -400v1600h250v-950h200v950h250v-950q0 -150 -50 -200t-200 -50l-50 -1q-100 2 -150 101v-500h-250z" />
<glyph unicode="&#xb6;" horiz-adv-x="1229" d="M112 1303q0 189 129 304t343 115h531v-84h-152v-1638h-99v1638h-199v-1638h-101v886q-208 9 -330 122.5t-122 294.5z" />
<glyph unicode="&#xb7;" horiz-adv-x="400" d="M0 500v250h250v-250h-250z" />
<glyph unicode="&#xb8;" horiz-adv-x="600" d="M0 -148l200 -1v174l250 125v-299q0 -149 -50.5 -199.5t-199.5 -51.5l-200 2v250z" />
<glyph unicode="&#xb9;" horiz-adv-x="600" d="M0 1133v267l450 200v-1200h-250v825z" />
<glyph unicode="&#xba;" horiz-adv-x="850" d="M0 649v700q0 149 50.5 199.5t199.5 51.5h200q149 -1 199.5 -50t50.5 -202v-698q0 -150 -50 -200t-200 -50h-200q-150 0 -200 50t-50 199zM250 649h200v700h-200v-700z" />
<glyph unicode="&#xbb;" horiz-adv-x="1400" d="M0 250v300l415 242l-415 208v300l600 -300v-400zM650 250v300l415 242l-415 208v300l600 -300v-400z" />
<glyph unicode="&#xbc;" horiz-adv-x="1550" d="M0 1133v267l450 200v-873l300 873h250l-137 -400h87v-550l200 100v200h250v-950h-250v450l-450 -225v502l-250 -727h-250l138 400h-138v825z" />
<glyph unicode="&#xbd;" horiz-adv-x="1500" d="M0 1133v267l450 200v-873l300 873h250l-138 -401q18 1 38 1h200q150 0 200 -50t50 -200v-150q0 -150 -100 -199l-350 -201v-150h450v-250h-700v475q0 101 100 150l350 200v125h-200v-75l-180 -90l-270 -785h-250l138 400h-138v825z" />
<glyph unicode="&#xbe;" horiz-adv-x="1650" d="M0 650v51l250 125v-176h200v275l-150 -75v300l150 74v126h-200v-75l-250 -125v200q0 150 50 200t200 50h200q150 0 200 -50t50 -200v-151q0 -125 -70 -180q37 -11 55 -45l215 626h250l-137 -400h37v-550l200 100v200h250v-950h-250v450l-450 -225v357l-200 -582h-250 l138 401q-18 -1 -38 -1h-200q-150 0 -200 75t-50 175z" />
<glyph unicode="&#xbf;" d="M0 250v350q0 150 100 199l150 76v325h250v-400q0 -101 -100 -150l-150 -75v-325h250v175l250 125v-300q0 -150 -50 -200t-200 -50h-250q-150 0 -200 50t-50 200zM250 1350v250h250v-250h-250z" />
<glyph unicode="&#xc0;" d="M0 0v1350q0 150 50 200t200 50h250q150 0 200 -50t50 -200v-1350h-250v725l-250 -125v-600h-250zM250 900l250 125v325h-250v-450zM250 1800v250h250v-375z" />
<glyph unicode="&#xc1;" d="M0 0v1350q0 150 50 200t200 50h250q150 0 200 -50t50 -200v-1350h-250v725l-250 -125v-600h-250zM250 900l250 125v325h-250v-450zM250 1675v250l250 125v-375h-250z" />
<glyph unicode="&#xc2;" d="M0 0v1350q0 150 50 200t200 50h250q150 0 200 -50t50 -200v-1350h-250v725l-250 -125v-600h-250zM50 1700l200 250h250l200 -250h-250l-75 75l-75 -75h-250zM250 900l250 125v325h-250v-450z" />
<glyph unicode="&#xc3;" d="M0 0v1350q0 150 50 200t200 50h250q150 0 200 -50t50 -200v-1350h-250v725l-250 -125v-600h-250zM0 1650l100 250q50 100 200 100q100 0 150 -100l50 100h250l-100 -250q-51 -100 -150 -100q-100 0 -200 100l-50 -100h-250zM250 900l250 125v325h-250v-450z" />
<glyph unicode="&#xc4;" d="M0 0v1350q0 150 50 200t200 50h250q150 0 200 -50t50 -200v-1350h-250v725l-250 -125v-600h-250zM50 1700v250h250v-250h-250zM250 900l250 125v325h-250v-450zM450 1700v250h250v-250h-250z" />
<glyph unicode="&#xc5;" d="M0 0v1350q0 150 50 200t200 50h250q150 0 200 -50t50 -200v-1350h-250v725l-250 -125v-600h-250zM250 900l250 125v325h-250v-450zM250 1700v250h250v-250h-250z" />
<glyph unicode="&#xc6;" horiz-adv-x="1300" d="M0 0v1350q0 150 50 200t200 50h900v-250h-400v-449l400 199v-299l-400 -200v-351h400l-1 -250h-649v725l-250 -125v-600h-250zM250 900l250 125v325h-250v-450z" />
<glyph unicode="&#xc7;" d="M0 249v1101q0 149 50.5 199.5t199.5 51.5l250 -1q149 0 199.5 -49t50.5 -202v-99l-250 -125v225h-250v-1101h250v176l250 125v-300q0 -150 -50 -200t-200 -50v-149q0 -149 -50.5 -199.5t-199.5 -51.5l-200 2v250l200 -1v149q-150 0 -200 50t-50 199z" />
<glyph unicode="&#xc8;" horiz-adv-x="800" d="M0 0v1600h650v-250h-400v-449l400 199v-299l-400 -200v-351h400l-1 -250h-649zM250 1800v250h250v-375z" />
<glyph unicode="&#xc9;" horiz-adv-x="800" d="M0 0v1600h650v-250h-400v-449l400 199v-299l-400 -200v-351h400l-1 -250h-649zM250 1675v250l250 125v-375h-250z" />
<glyph unicode="&#xca;" horiz-adv-x="800" d="M0 0v1600h650v-250h-400v-449l400 199v-299l-400 -200v-351h400l-1 -250h-649zM0 1700l200 250h250l200 -250h-250l-75 75l-75 -75h-250z" />
<glyph unicode="&#xcb;" horiz-adv-x="800" d="M0 0v1600h650v-250h-400v-449l400 199v-299l-400 -200v-351h400l-1 -250h-649zM0 1700v250h250v-250h-250zM400 1700v250h250v-250h-250z" />
<glyph unicode="&#xcc;" horiz-adv-x="400" d="M0 0v1600h250v-1600h-250zM0 1800v250h250v-375z" />
<glyph unicode="&#xcd;" horiz-adv-x="400" d="M0 0v1600h250v-1600h-250zM0 1675v250l250 125v-375h-250z" />
<glyph unicode="&#xce;" horiz-adv-x="400" d="M-200 1700l200 250h250l200 -250h-250l-75 75l-75 -75h-250zM0 0v1600h250v-1600h-250z" />
<glyph unicode="&#xcf;" horiz-adv-x="400" d="M-200 1700v250h250v-250h-250zM0 0v1600h250v-1600h-250zM200 1700v250h250v-250h-250z" />
<glyph unicode="&#xd0;" horiz-adv-x="1100" d="M0 500v300l200 100v700h500q149 0 199.5 -49t50.5 -202v-1099q0 -150 -50 -200t-200 -50l-500 -1v601zM450 249l250 1v1099h-250v-324l150 75v-299l-150 -75v-477z" />
<glyph unicode="&#xd1;" d="M0 0v1600h250v-150q50 150 150 150h100q150 0 200 -75t50 -175v-1350h-250v1350h-250v-1350h-250zM0 1650l100 250q50 100 200 100q100 0 150 -100l50 100h250l-100 -250q-51 -100 -150 -100q-100 0 -200 100l-50 -100h-250z" />
<glyph unicode="&#xd2;" d="M0 249v1101q0 149 50.5 199.5t199.5 51.5l250 -1q149 0 199.5 -49t50.5 -202v-1099q0 -150 -50 -200t-200 -50h-250q-150 0 -200 50t-50 199zM250 249h250v1101h-250v-1101zM250 1800v250h250v-375z" />
<glyph unicode="&#xd3;" d="M0 249v1101q0 149 50.5 199.5t199.5 51.5l250 -1q149 0 199.5 -49t50.5 -202v-1099q0 -150 -50 -200t-200 -50h-250q-150 0 -200 50t-50 199zM250 249h250v1101h-250v-1101zM250 1675v250l250 125v-375h-250z" />
<glyph unicode="&#xd4;" d="M0 249v1101q0 149 50.5 199.5t199.5 51.5l250 -1q149 0 199.5 -49t50.5 -202v-1099q0 -150 -50 -200t-200 -50h-250q-150 0 -200 50t-50 199zM50 1700l200 250h250l200 -250h-250l-75 75l-75 -75h-250zM250 249h250v1101h-250v-1101z" />
<glyph unicode="&#xd5;" d="M0 249v1101q0 149 50.5 199.5t199.5 51.5l250 -1q149 0 199.5 -49t50.5 -202v-1099q0 -150 -50 -200t-200 -50h-250q-150 0 -200 50t-50 199zM0 1650l100 250q50 100 200 100q100 0 150 -100l50 100h250l-100 -250q-51 -100 -150 -100q-100 0 -200 100l-50 -100h-250z M250 249h250v1101h-250v-1101z" />
<glyph unicode="&#xd6;" d="M0 249v1101q0 149 50.5 199.5t199.5 51.5l250 -1q149 0 199.5 -49t50.5 -202v-1099q0 -150 -50 -200t-200 -50h-250q-150 0 -200 50t-50 199zM50 1700v250h250v-250h-250zM250 249h250v1101h-250v-1101zM450 1700v250h250v-250h-250z" />
<glyph unicode="&#xd7;" horiz-adv-x="750" d="M0 250l181 491l-181 459h250l50 -142l50 142h250l-181 -459l181 -491h-225l-75 191l-75 -191h-225z" />
<glyph unicode="&#xd8;" d="M0 0l28 81q-28 57 -28 168v1101q0 149 50.5 199.5t199.5 51.5l250 -1q26 0 49 -2l1 2h250l-55 -161q5 -40 5 -90v-1099q0 -150 -50 -200t-200 -50h-500zM250 727l214 623h-214v-623zM336 249h164v478z" />
<glyph unicode="&#xd9;" d="M0 249v1351h250v-1351h250v1351h250v-1350q0 -150 -50 -200t-200 -50h-250q-150 0 -200 50t-50 199zM250 1800v250h250v-375z" />
<glyph unicode="&#xda;" d="M0 249v1351h250v-1351h250v1351h250v-1350q0 -150 -50 -200t-200 -50h-250q-150 0 -200 50t-50 199zM250 1675v250l250 125v-375h-250z" />
<glyph unicode="&#xdb;" d="M0 249v1351h250v-1351h250v1351h250v-1350q0 -150 -50 -200t-200 -50h-250q-150 0 -200 50t-50 199zM50 1700l200 250h250l200 -250h-250l-75 75l-75 -75h-250z" />
<glyph unicode="&#xdc;" d="M0 249v1351h250v-1351h250v1351h250v-1350q0 -150 -50 -200t-200 -50h-250q-150 0 -200 50t-50 199zM50 1700v250h250v-250h-250zM450 1700v250h250v-250h-250z" />
<glyph unicode="&#xdd;" d="M0 252v99l250 125v-225h250v582l-500 -233v1000h250v-599l250 99v500h250v-1349q0 -149 -50.5 -199.5t-199.5 -51.5l-250 1q-149 0 -199.5 49t-50.5 202zM250 1675v250l250 125v-375h-250z" />
<glyph unicode="&#xde;" d="M0 0v1600h250v-249h250q149 0 199.5 -49t50.5 -202v-599q0 -150 -50 -200t-200 -50h-250v-251h-250zM250 500l250 1v599h-250v-600z" />
<glyph unicode="&#xdf;" d="M0 0v1350q0 150 50 200t200 50h250q150 0 200 -50t50 -200v-350q0 -125 -70 -180q69 -21 70 -120v-450q0 -150 -50 -200t-200 -50h-100v250h100v476l-150 -75v300l150 74v325h-250v-1350h-250z" />
<glyph unicode="&#xe0;" horiz-adv-x="850" d="M0 250v200q0 100 100 150l350 175v176h-200v-176l-250 -125v300q0 150 50 200t200 50h200q150 0 200 -50t50 -199v-951h-250v100q-50 -99 -148 -99h-52q-149 0 -199 49q-51 49 -51 200zM250 251h200v224l-200 -100v-124zM250 1350v250h250v-375z" />
<glyph unicode="&#xe1;" horiz-adv-x="850" d="M0 250v200q0 100 100 150l350 175v176h-200v-176l-250 -125v300q0 150 50 200t200 50h200q150 0 200 -50t50 -199v-951h-250v100q-50 -99 -148 -99h-52q-149 0 -199 49q-51 49 -51 200zM250 251h200v224l-200 -100v-124zM250 1250v250l250 125v-375h-250z" />
<glyph unicode="&#xe2;" horiz-adv-x="850" d="M0 250v200q0 100 100 150l350 175v176h-200v-176l-250 -125v300q0 150 50 200t200 50h200q150 0 200 -50t50 -199v-951h-250v100q-50 -99 -148 -99h-52q-149 0 -199 49q-51 49 -51 200zM25 1300l200 250h250l200 -250h-250l-75 75l-75 -75h-250zM250 251h200v224 l-200 -100v-124z" />
<glyph unicode="&#xe3;" horiz-adv-x="850" d="M0 250v200q0 100 100 150l350 175v176h-200v-176l-250 -125v300q0 150 50 200t200 50h200q150 0 200 -50t50 -199v-951h-250v100q-50 -99 -148 -99h-52q-149 0 -199 49q-51 49 -51 200zM0 1250l100 250q50 100 200 100q100 0 150 -100l50 100h250l-100 -250 q-51 -100 -150 -100q-100 0 -200 100l-50 -100h-250zM250 251h200v224l-200 -100v-124z" />
<glyph unicode="&#xe4;" horiz-adv-x="850" d="M0 250v200q0 100 100 150l350 175v176h-200v-176l-250 -125v300q0 150 50 200t200 50h200q150 0 200 -50t50 -199v-951h-250v100q-50 -99 -148 -99h-52q-149 0 -199 49q-51 49 -51 200zM25 1250v250h250v-250h-250zM250 251h200v224l-200 -100v-124zM425 1250v250h250 v-250h-250z" />
<glyph unicode="&#xe5;" horiz-adv-x="850" d="M0 250v200q0 100 100 150l350 175v176h-200v-176l-250 -125v300q0 150 50 200t200 50h200q150 0 200 -50t50 -199v-951h-250v100q-50 -99 -148 -99h-52q-149 0 -199 49q-51 49 -51 200zM225 1250v250h250v-250h-250zM250 251h200v224l-200 -100v-124z" />
<glyph unicode="&#xe6;" horiz-adv-x="1300" d="M0 250v200q0 100 100 150l350 175v176h-200v-176l-250 -125v300q0 150 50 200t200 50h200q77 0 127 -13q50 13 123 13l200 -1q149 0 200 -49q50 -49 50 -200v-299l-450 -226v-176h200v176l250 125v-300q0 -150 -50 -200t-200 -50h-450v100q-50 -99 -148 -99h-52 q-149 0 -199 49q-51 49 -51 200zM250 251h200v224l-200 -100v-124zM700 725l200 100v124h-200v-224z" />
<glyph unicode="&#xe7;" horiz-adv-x="850" d="M0 249v700q0 149 50.5 199.5t199.5 51.5l200 -1q149 0 199.5 -49t50.5 -202v-99l-250 -125v225h-200v-700h200v176l250 125v-300q0 -150 -50 -200q-46 -46 -175 -50v-149q0 -149 -50.5 -199.5t-199.5 -51.5h-200v250l200 1v149q-129 4 -175 50q-50 50 -50 199z" />
<glyph unicode="&#xe8;" horiz-adv-x="850" d="M0 249v700q0 149 50.5 199.5t199.5 51.5l200 -1q149 0 200 -49q50 -49 50 -200v-299l-450 -226v-176h200v176l250 125v-300q0 -150 -50 -200t-200 -50h-200q-150 0 -200 50t-50 199zM250 725l200 100v124h-200v-224zM250 1350v250h250v-375z" />
<glyph unicode="&#xe9;" horiz-adv-x="850" d="M0 249v700q0 149 50.5 199.5t199.5 51.5l200 -1q149 0 200 -49q50 -49 50 -200v-299l-450 -226v-176h200v176l250 125v-300q0 -150 -50 -200t-200 -50h-200q-150 0 -200 50t-50 199zM250 725l200 100v124h-200v-224zM250 1250v250l250 125v-375h-250z" />
<glyph unicode="&#xea;" horiz-adv-x="850" d="M0 249v700q0 149 50.5 199.5t199.5 51.5l200 -1q149 0 200 -49q50 -49 50 -200v-299l-450 -226v-176h200v176l250 125v-300q0 -150 -50 -200t-200 -50h-200q-150 0 -200 50t-50 199zM25 1300l200 250h250l200 -250h-250l-75 75l-75 -75h-250zM250 725l200 100v124h-200 v-224z" />
<glyph unicode="&#xeb;" horiz-adv-x="850" d="M0 249v700q0 149 50.5 199.5t199.5 51.5l200 -1q149 0 200 -49q50 -49 50 -200v-299l-450 -226v-176h200v176l250 125v-300q0 -150 -50 -200t-200 -50h-200q-150 0 -200 50t-50 199zM25 1250v250h250v-250h-250zM250 725l200 100v124h-200v-224zM425 1250v250h250v-250 h-250z" />
<glyph unicode="&#xec;" horiz-adv-x="400" d="M0 0v1075l250 125v-1200h-250zM0 1350v250h250v-375z" />
<glyph unicode="&#xed;" horiz-adv-x="400" d="M0 0v1075l250 125v-1200h-250zM0 1250v250l250 125v-375h-250z" />
<glyph unicode="&#xee;" horiz-adv-x="400" d="M-200 1250l200 250h250l200 -250h-250l-75 75l-75 -75h-250zM0 0v1075l250 125v-1200h-250z" />
<glyph unicode="&#xef;" horiz-adv-x="400" d="M-200 1250v250h250v-250h-250zM0 0v1075l250 125v-1200h-250zM200 1250v250h250v-250h-250z" />
<glyph unicode="&#xf0;" horiz-adv-x="850" d="M0 250v700q0 150 50 200t200 50h50q100 0 150 -100v251h-200v249h200q150 0 200 -50t50 -199v-1351h-250v100q-50 -99 -150 -101l-50 1q-150 0 -200 50t-50 200zM250 250h200v700h-200v-700z" />
<glyph unicode="&#xf1;" horiz-adv-x="850" d="M0 0v1200h250v-100q50 100 150 100h50q150 0 200 -50t50 -200v-950h-250v950h-200v-950h-250zM0 1250l100 250q50 100 200 100q100 0 150 -100l50 100h250l-100 -250q-51 -100 -150 -100q-100 0 -200 100l-50 -100h-250z" />
<glyph unicode="&#xf2;" horiz-adv-x="850" d="M0 249v700q0 149 50.5 199.5t199.5 51.5h200q149 -1 199.5 -50t50.5 -202v-698q0 -150 -50 -200t-200 -50h-200q-150 0 -200 50t-50 199zM250 249h200v700h-200v-700zM250 1350v250h250v-375z" />
<glyph unicode="&#xf3;" horiz-adv-x="850" d="M0 249v700q0 149 50.5 199.5t199.5 51.5h200q149 -1 199.5 -50t50.5 -202v-698q0 -150 -50 -200t-200 -50h-200q-150 0 -200 50t-50 199zM250 249h200v700h-200v-700zM250 1250v250l250 125v-375h-250z" />
<glyph unicode="&#xf4;" horiz-adv-x="850" d="M0 249v700q0 149 50.5 199.5t199.5 51.5h200q149 -1 199.5 -50t50.5 -202v-698q0 -150 -50 -200t-200 -50h-200q-150 0 -200 50t-50 199zM25 1300l200 250h250l200 -250h-250l-75 75l-75 -75h-250zM250 249h200v700h-200v-700z" />
<glyph unicode="&#xf5;" horiz-adv-x="850" d="M0 249v700q0 149 50.5 199.5t199.5 51.5h200q149 -1 199.5 -50t50.5 -202v-698q0 -150 -50 -200t-200 -50h-200q-150 0 -200 50t-50 199zM0 1250l100 250q50 100 200 100q100 0 150 -100l50 100h250l-100 -250q-51 -100 -150 -100q-100 0 -200 100l-50 -100h-250z M250 249h200v700h-200v-700z" />
<glyph unicode="&#xf6;" horiz-adv-x="850" d="M0 249v700q0 149 50.5 199.5t199.5 51.5h200q149 -1 199.5 -50t50.5 -202v-698q0 -150 -50 -200t-200 -50h-200q-150 0 -200 50t-50 199zM25 1250v250h250v-250h-250zM250 249h200v700h-200v-700zM425 1250v250h250v-250h-250z" />
<glyph unicode="&#xf7;" horiz-adv-x="950" d="M0 401v300l800 399v-299zM250 1000v250h250v-250h-250zM300 250v250h250v-250h-250z" />
<glyph unicode="&#xf8;" horiz-adv-x="850" d="M0 0l29 79q-29 56 -29 170v700q0 149 50.5 199.5t199.5 51.5h450l-30 -77q30 -56 30 -175v-698q0 -150 -50 -200t-200 -50h-450zM250 667l106 282h-106v-282zM324 249h126v319z" />
<glyph unicode="&#xf9;" horiz-adv-x="850" d="M0 250v950h250v-950h200v950h250v-1200h-250v100q-50 -100 -150 -100h-50q-150 0 -200 50t-50 200zM250 1350v250h250v-375z" />
<glyph unicode="&#xfa;" horiz-adv-x="850" d="M0 250v950h250v-950h200v950h250v-1200h-250v100q-50 -100 -150 -100h-50q-150 0 -200 50t-50 200zM250 1250v250l250 125v-375h-250z" />
<glyph unicode="&#xfb;" horiz-adv-x="850" d="M0 250v950h250v-950h200v950h250v-1200h-250v100q-50 -100 -150 -100h-50q-150 0 -200 50t-50 200zM25 1300l200 250h250l200 -250h-250l-75 75l-75 -75h-250z" />
<glyph unicode="&#xfc;" horiz-adv-x="850" d="M0 250v950h250v-950h200v950h250v-1200h-250v100q-50 -100 -150 -100h-50q-150 0 -200 50t-50 200zM25 1250v250h250v-250h-250zM425 1250v250h250v-250h-250z" />
<glyph unicode="&#xfd;" horiz-adv-x="850" d="M0 100v1100h250v-699l200 66v632h250v-1349q0 -149 -50.5 -199.5t-199.5 -51.5l-200 2q-149 0 -199.5 49t-50.5 200l250 125v-124l200 -1v450zM250 1250v250l250 125v-375h-250z" />
<glyph unicode="&#xfe;" horiz-adv-x="850" d="M0 0v1600h250v-350q50 100 150 100h50q150 0 200 -50t50 -200v-600q0 -150 -50 -200t-200 -50l-50 -1q-100 2 -150 101v-350h-250zM250 500h200v600h-200v-600z" />
<glyph unicode="&#xff;" horiz-adv-x="850" d="M0 100v1100h250v-699l200 66v632h250v-1349q0 -149 -50.5 -199.5t-199.5 -51.5l-200 2q-149 0 -199.5 49t-50.5 200l250 125v-124l200 -1v450zM25 1250v250h250v-250h-250zM425 1250v250h250v-250h-250z" />
<glyph unicode="&#x2c6;" horiz-adv-x="800" d="M0 1700l200 250h250l200 -250h-250l-75 75l-75 -75h-250z" />
<glyph unicode="&#x2dc;" d="M0 1650l100 250q50 100 200 100q100 0 150 -100l50 100h250l-100 -250q-51 -100 -150 -100q-100 0 -200 100l-50 -100h-250z" />
<glyph unicode="&#x2000;" horiz-adv-x="1025" />
<glyph unicode="&#x2001;" horiz-adv-x="2050" />
<glyph unicode="&#x2002;" horiz-adv-x="1025" />
<glyph unicode="&#x2003;" horiz-adv-x="2050" />
<glyph unicode="&#x2004;" horiz-adv-x="683" />
<glyph unicode="&#x2005;" horiz-adv-x="512" />
<glyph unicode="&#x2006;" horiz-adv-x="341" />
<glyph unicode="&#x2007;" horiz-adv-x="341" />
<glyph unicode="&#x2008;" horiz-adv-x="256" />
<glyph unicode="&#x2009;" horiz-adv-x="410" />
<glyph unicode="&#x200a;" horiz-adv-x="113" />
<glyph unicode="&#x2010;" horiz-adv-x="750" d="M0 500v300l600 300v-299z" />
<glyph unicode="&#x2011;" horiz-adv-x="750" d="M0 500v300l600 300v-299z" />
<glyph unicode="&#x2012;" horiz-adv-x="750" d="M0 500v300l600 300v-299z" />
<glyph unicode="&#x2013;" horiz-adv-x="750" d="M0 500v300l600 300v-299z" />
<glyph unicode="&#x2014;" horiz-adv-x="950" d="M0 401v300l800 399v-299z" />
<glyph unicode="&#x2018;" horiz-adv-x="400" d="M0 1350v250h250v-375z" />
<glyph unicode="&#x2019;" horiz-adv-x="400" d="M0 1225v375h250v-250z" />
<glyph unicode="&#x201a;" horiz-adv-x="400" d="M0 -125v375h250v-250z" />
<glyph unicode="&#x201c;" horiz-adv-x="750" d="M0 1350v250h250v-375zM350 1350v250h250v-375z" />
<glyph unicode="&#x201d;" horiz-adv-x="750" d="M0 1225v375h250v-250zM350 1225v375h250v-250z" />
<glyph unicode="&#x201e;" horiz-adv-x="800" d="M0 -125v375h250v-250zM400 -125v375h250v-250z" />
<glyph unicode="&#x2022;" horiz-adv-x="1229" d="M259 862q0 147 104.5 250.5t251.5 103.5t250.5 -104t103.5 -250q0 -147 -105 -252t-251 -105q-148 0 -251 104.5t-103 252.5z" />
<glyph unicode="&#x2026;" horiz-adv-x="1200" d="M0 0v250h250v-250h-250zM400 0v250h250v-250h-250zM800 0v250h250v-250h-250z" />
<glyph unicode="&#x202f;" horiz-adv-x="410" />
<glyph unicode="&#x2039;" horiz-adv-x="750" d="M0 550v400l600 350v-300l-415 -242l415 -208v-300z" />
<glyph unicode="&#x203a;" horiz-adv-x="750" d="M0 250v300l415 208l-415 242v300l600 -350v-400z" />
<glyph unicode="&#x205f;" horiz-adv-x="512" />
<glyph unicode="&#x20ac;" horiz-adv-x="1050" d="M0 500v250h150v100h-150v250h150v250q0 149 50.5 199.5t199.5 51.5l250 -1q149 0 199.5 -49t50.5 -202v-99l-250 -125v225h-250v-250h150v-250h-150v-100h150v-250h-150v-251h250v176l250 125v-300q0 -150 -50 -200t-200 -50h-250q-150 0 -200 50t-50 199v251h-150z" />
<glyph unicode="&#x2122;" horiz-adv-x="1175" d="M0 1475v125h405v-125h-142v-675h-125v675h-138zM450 800v675q0 75 25 100t100 25h100q50 0 63 -37q12 37 62 37h100q75 0 100 -25t25 -99v-676h-125v676h-100v-676h-125v676h-100v-676h-125z" />
<glyph unicode="&#x25fc;" horiz-adv-x="1200" d="M0 0v1200h1200v-1200h-1200z" />
</font>
</defs>
</svg>
